{"glyphs":{"0":{"ha":703,"x_min":35,"x_max":668,"o":"m 647 735 q 658 513 667 658 q 619 258 650 368 q 549 99 589 153 q 447 29 508 44 q 405 24 435 25 q 361 24 375 22 q 172 94 249 38 q 116 148 143 117 q 81 200 89 179 q 71 228 79 207 q 43 333 51 276 q 38 453 36 381 q 51 564 40 525 q 71 643 57 583 q 131 815 96 744 q 357 1015 226 1015 q 440 997 396 1015 q 485 983 465 988 q 543 949 518 975 q 602 853 571 917 q 647 735 633 790 m 531 454 q 540 692 553 586 q 513 828 532 771 q 503 851 507 846 q 492 860 500 856 l 478 867 l 471 858 q 436 796 464 850 q 368 613 392 704 q 346 494 350 539 q 333 442 344 465 l 321 419 l 319 365 q 332 215 318 278 q 363 140 339 182 l 369 128 l 381 135 q 410 160 390 140 q 531 454 496 246 z "},"1":{"ha":585,"x_min":68,"x_max":535,"o":"m 525 197 q 531 32 535 54 q 492 -28 522 -12 q 451 -36 478 -35 q 403 -33 425 -37 q 330 -8 356 -24 q 285 39 304 8 q 261 136 268 69 q 263 550 242 372 q 294 774 281 707 q 301 818 303 817 q 298 815 301 818 q 289 806 294 813 q 275 792 283 800 q 258 775 267 785 q 238 754 249 765 q 165 683 175 690 q 143 678 157 676 q 94 700 119 681 q 69 735 69 719 q 99 776 69 742 q 150 832 128 811 q 311 953 256 926 q 365 963 331 963 q 398 960 385 963 q 423 953 411 958 q 451 939 435 949 q 503 890 490 917 q 521 786 514 869 q 524 568 525 756 q 525 197 522 246 z "},"2":{"ha":656,"x_min":26,"x_max":644,"o":"m 436 346 q 303 153 336 222 q 272 72 267 78 q 304 76 274 71 q 372 83 335 81 q 435 89 410 86 q 490 88 460 92 q 536 76 519 85 q 578 43 560 64 q 596 6 596 22 q 589 -9 596 -4 q 556 -19 582 -14 q 419 -35 522 -28 q 283 -39 315 -42 q 176 -18 210 -31 q 123 10 156 -11 q 72 49 90 31 q 53 72 57 63 q 39 117 49 81 q 42 221 26 156 q 222 561 75 372 q 368 757 322 690 q 417 845 397 801 q 432 900 436 889 q 409 909 431 904 q 371 914 388 914 q 250 878 304 914 q 210 844 235 868 q 172 804 185 821 q 131 725 151 778 q 123 707 125 713 q 119 698 121 701 q 115 694 117 694 q 110 693 113 693 q 88 701 101 692 q 72 718 75 710 q 72 758 69 725 q 81 813 75 792 q 111 885 88 842 q 158 953 135 928 q 275 1025 203 1001 q 335 1032 299 1032 q 522 949 436 1032 q 622 689 643 833 q 544 494 610 603 q 436 346 517 447 z "},"3":{"ha":588,"x_min":19,"x_max":560,"o":"m 440 374 q 518 253 497 317 q 529 180 528 224 q 522 106 531 136 q 492 38 515 74 q 442 -18 469 3 q 360 -58 408 -46 q 264 -64 313 -69 q 90 4 165 -51 q 32 72 51 33 q 24 89 26 83 q 22 101 22 94 q 21 125 21 108 q 28 178 21 157 q 60 239 35 200 q 93 290 86 282 q 110 299 100 299 q 135 291 121 299 q 156 274 149 283 l 163 264 l 154 250 q 110 150 117 185 q 108 85 101 115 q 128 53 114 56 q 158 56 136 51 q 194 65 181 60 q 284 130 238 83 q 365 232 331 176 q 393 313 392 276 q 388 344 394 333 q 365 365 381 354 q 211 410 328 390 q 122 456 161 418 q 86 535 71 508 q 138 593 93 547 q 228 681 182 639 q 396 863 346 786 q 410 886 410 882 q 358 906 410 892 q 244 921 315 918 q 201 926 211 922 q 178 943 190 929 q 162 976 163 961 q 175 997 161 990 q 209 1003 182 1000 q 267 1009 236 1007 q 315 1010 297 1011 q 476 947 419 1003 q 547 826 531 893 q 533 705 560 772 q 447 575 506 638 q 383 517 426 554 q 319 465 340 479 l 304 454 l 318 451 q 440 374 381 435 z "},"4":{"ha":658,"x_min":0,"x_max":611,"o":"m 544 967 q 563 953 544 967 q 597 909 582 939 q 611 801 611 879 q 594 563 611 733 q 583 400 585 453 q 581 196 581 347 l 581 35 l 569 19 q 550 -1 560 3 q 519 -7 543 -6 q 481 -6 496 -8 q 379 43 415 7 q 336 131 343 79 q 325 315 324 222 l 325 360 l 313 360 q 256 365 300 361 q 79 414 133 379 q 33 455 51 433 q 8 499 14 476 q 7 544 1 522 q 68 663 17 585 q 183 815 119 742 q 269 906 217 853 q 350 981 322 958 q 407 1020 389 1014 q 442 1015 425 1026 q 471 1003 453 1007 q 544 967 507 994 m 335 605 q 335 637 335 605 q 341 728 336 669 q 344 789 346 788 q 322 761 343 789 q 273 695 300 733 q 229 633 246 657 q 166 533 196 585 q 140 476 136 481 q 247 464 146 472 q 304 460 297 461 q 321 460 311 460 l 331 458 l 331 478 q 332 518 331 496 q 335 605 333 540 z "},"5":{"ha":790,"x_min":18,"x_max":722,"o":"m 699 940 q 719 906 717 921 q 707 888 722 892 q 625 888 697 885 q 499 897 553 892 q 383 906 429 904 l 340 908 l 339 861 q 310 568 335 763 q 302 498 301 499 q 317 500 303 497 q 363 503 333 504 q 413 497 393 503 q 514 447 467 483 q 588 367 557 414 q 628 271 618 321 q 633 214 633 250 q 568 6 632 96 q 436 -92 513 -75 q 331 -90 390 -103 q 157 -33 271 -78 q 55 19 92 -8 q 18 69 18 47 q 26 85 18 81 q 78 85 44 94 q 128 61 113 74 q 176 44 135 54 q 236 33 218 33 q 318 79 272 33 q 407 212 374 135 q 436 356 440 289 q 415 424 433 417 q 370 426 407 426 q 318 424 333 426 q 271 401 279 415 q 225 382 258 382 q 146 402 189 382 q 86 447 103 422 l 79 460 l 79 515 q 93 639 79 569 q 171 933 138 864 q 198 967 182 958 q 240 969 214 975 q 263 971 258 967 q 435 988 279 988 q 571 983 525 989 q 636 974 615 978 q 669 963 657 969 q 699 940 682 956 z "},"6":{"ha":654,"x_min":35,"x_max":629,"o":"m 579 510 q 617 240 628 428 q 588 69 610 128 q 368 -33 540 -53 q 276 -12 326 -29 q 190 26 225 6 q 93 119 128 65 q 43 258 58 174 q 36 356 36 292 q 42 454 36 421 q 83 615 56 535 q 213 849 126 739 q 262 902 232 872 q 308 942 292 932 q 349 963 332 958 q 396 968 365 968 l 429 968 l 454 956 q 493 928 479 943 q 507 906 507 914 q 492 883 507 899 q 411 756 458 853 q 347 611 347 626 q 350 611 347 611 q 358 611 353 611 q 368 611 363 611 q 489 585 426 615 q 579 510 551 554 m 521 374 q 483 525 525 481 q 442 547 463 547 q 389 518 418 547 q 315 418 360 490 q 302 396 306 403 q 297 382 299 389 q 294 361 296 375 q 291 272 290 328 q 296 193 292 217 q 324 96 306 131 l 332 81 l 346 82 q 383 96 360 83 q 438 136 417 114 q 479 196 460 158 q 521 374 518 271 z "},"7":{"ha":650,"x_min":69,"x_max":633,"o":"m 617 832 q 615 694 633 788 q 521 360 585 538 q 446 122 478 242 q 425 53 433 72 q 390 -8 417 33 q 336 -33 372 -37 q 290 -16 315 -29 q 242 16 264 -3 q 210 51 219 35 q 202 78 203 65 q 204 149 201 90 q 233 319 210 224 q 274 460 254 401 q 364 694 294 518 q 431 879 435 875 q 351 890 425 883 q 203 900 278 897 q 139 907 157 903 q 92 931 114 913 q 69 963 69 949 q 95 981 69 975 q 190 990 121 986 q 482 954 374 1001 q 617 832 589 908 z "},"8":{"ha":703,"x_min":26,"x_max":668,"o":"m 664 292 q 668 254 668 279 q 664 218 668 229 q 635 149 654 182 q 574 75 618 118 q 496 11 529 32 q 399 -34 439 -25 q 326 -37 360 -43 q 122 71 221 -21 q 40 199 54 133 q 60 371 26 264 q 183 581 97 492 l 196 594 l 172 621 q 96 730 119 676 q 72 847 72 783 q 93 940 72 903 q 214 1046 129 1008 q 272 1065 247 1060 q 336 1069 296 1069 q 408 1062 382 1069 q 461 1042 435 1054 q 511 1014 488 1029 q 556 980 535 999 q 592 942 576 961 q 640 778 651 863 q 617 696 635 732 q 551 593 600 660 q 474 515 511 538 q 451 500 451 501 q 475 483 451 499 q 553 428 508 461 q 608 385 597 396 q 664 292 650 343 m 250 619 q 266 638 253 622 q 290 669 279 653 q 326 715 301 686 q 419 840 393 793 q 446 925 446 886 l 447 949 l 432 953 q 286 928 372 967 q 188 818 206 892 q 183 756 181 792 q 197 692 186 719 q 215 662 203 681 q 238 631 226 643 q 250 619 249 618 m 561 217 q 586 321 597 274 q 554 379 578 357 q 520 403 546 386 q 468 438 494 421 q 429 460 442 454 l 408 471 l 386 454 l 363 439 l 346 401 q 274 121 274 242 q 278 87 274 92 q 307 83 283 82 q 354 90 335 86 q 474 138 414 101 q 561 217 533 175 z "},"9":{"ha":758,"x_min":25,"x_max":714,"o":"m 692 913 q 713 718 713 867 q 701 450 713 563 q 683 299 694 368 q 653 188 674 242 q 592 80 626 118 q 501 18 558 42 q 433 2 475 7 q 358 1 390 -3 q 249 39 325 6 q 119 104 149 81 q 94 130 104 115 q 88 153 85 144 q 110 167 90 165 q 154 157 129 168 q 215 132 174 149 l 258 117 l 281 121 q 315 132 303 125 q 407 315 371 165 q 433 481 419 372 q 443 553 440 542 l 442 558 q 426 538 439 556 q 341 452 388 478 q 249 439 294 426 q 128 507 185 456 q 47 621 71 558 q 32 756 25 678 q 71 896 39 835 q 123 972 90 933 q 185 1028 156 1010 q 305 1060 238 1060 q 435 1032 372 1061 q 506 981 475 1013 l 518 967 l 528 976 q 550 989 538 985 q 627 972 579 997 q 692 913 675 946 m 475 837 q 480 845 475 837 q 488 865 485 854 q 482 890 492 876 q 471 904 471 904 q 450 899 469 907 q 415 881 431 890 q 321 750 351 835 q 299 678 310 719 q 285 610 289 636 q 286 581 282 585 q 311 596 289 581 q 438 764 378 640 q 475 837 465 819 z "},"\u0000":{"ha":0,"x_min":0,"x_max":0,"o":""},"\n":{"ha":0,"x_min":0,"x_max":0,"o":""},"\r":{"ha":0,"x_min":0,"x_max":0,"o":""}," ":{"ha":415,"x_min":0,"x_max":0,"o":""},"!":{"ha":364,"x_min":33,"x_max":321,"o":"m 278 97 q 294 61 297 86 q 265 30 292 39 q 196 28 238 21 q 122 66 147 36 q 118 122 97 96 q 179 143 135 143 q 261 111 240 143 q 278 97 268 101 m 311 461 q 318 351 319 376 q 301 267 317 325 q 276 235 296 244 q 235 229 267 231 q 183 233 203 228 q 114 265 138 243 q 79 323 101 278 q 50 399 57 368 q 50 663 35 467 q 133 1092 82 1043 q 165 1101 142 1101 q 214 1089 189 1101 q 289 1000 281 1054 q 296 854 292 983 q 311 461 303 554 z "},"#":{"ha":1035,"x_min":67,"x_max":1007,"o":"m 950 567 q 903 569 904 572 q 877 510 899 565 q 857 453 856 454 q 906 443 858 451 l 954 436 l 967 422 q 988 379 982 404 q 986 344 994 354 q 911 342 981 340 q 828 346 842 343 l 814 347 l 806 325 q 742 180 783 267 q 688 78 701 93 q 673 65 676 65 q 657 53 669 65 q 629 33 642 36 q 599 35 617 29 q 549 62 575 42 q 504 108 524 82 q 479 156 485 133 q 482 194 475 169 q 489 231 489 219 q 524 329 489 258 q 544 372 544 369 q 529 372 544 374 l 514 372 l 490 319 q 408 139 419 160 q 368 89 396 118 q 325 56 336 57 q 218 108 279 47 q 178 164 185 142 q 183 224 172 186 q 195 267 192 250 q 219 338 199 285 q 239 394 240 390 q 165 397 238 397 l 94 397 l 86 404 q 71 430 75 417 q 74 444 67 443 q 232 460 104 454 l 269 463 l 281 490 q 324 599 306 558 l 332 615 l 297 615 q 200 628 219 615 q 189 638 194 631 q 179 651 183 644 q 175 664 175 658 q 186 672 175 671 q 279 676 197 672 l 360 682 l 378 724 q 468 914 438 858 q 483 944 482 939 q 490 955 485 950 q 500 963 494 960 q 511 968 506 967 q 563 959 532 971 q 624 925 594 947 q 681 826 694 872 q 669 781 678 814 q 654 715 663 747 q 645 684 644 685 q 672 682 646 683 l 697 679 l 711 707 q 772 821 732 749 q 819 906 811 893 q 839 926 831 921 q 860 931 847 932 q 933 886 892 928 q 979 817 969 850 q 958 713 985 793 q 949 687 954 700 q 942 665 944 674 q 939 656 939 657 q 940 651 938 653 q 949 649 942 650 q 992 618 972 646 q 1004 585 1003 600 q 999 565 1006 568 q 950 567 992 563 m 628 542 l 656 600 l 638 601 q 617 603 618 604 q 591 541 617 603 q 560 468 565 479 q 563 465 560 467 q 571 463 565 464 q 583 463 576 463 q 595 473 590 463 q 628 542 600 483 z "},"$":{"ha":682,"x_min":31,"x_max":654,"o":"m 457 478 q 596 364 539 436 q 653 229 653 292 q 630 161 653 193 q 567 110 607 129 q 439 88 513 85 q 439 61 439 74 q 436 10 439 24 q 426 -11 433 -6 q 403 -18 418 -17 q 379 -15 388 -19 q 331 33 346 0 q 319 69 324 46 q 315 106 318 82 q 267 126 294 113 q 108 235 165 178 q 60 311 60 283 q 96 328 60 339 q 140 303 117 321 q 231 263 181 269 q 310 263 260 258 q 308 324 310 293 q 307 378 306 374 q 307 396 307 379 q 217 431 251 411 q 103 524 153 465 q 38 647 54 583 q 32 699 32 665 q 38 754 32 733 q 113 878 53 821 q 247 954 174 936 q 294 961 269 960 q 308 1061 296 1047 q 324 1067 313 1067 q 344 1061 336 1067 q 383 1022 365 1049 q 407 969 401 994 q 408 950 408 961 q 513 897 472 926 q 557 868 531 885 q 595 841 578 856 q 622 813 613 826 q 632 790 632 799 q 619 774 632 775 q 583 788 607 774 q 556 798 567 799 q 511 804 544 797 q 415 801 454 814 q 415 742 415 774 q 418 657 417 685 q 419 560 418 629 q 421 493 421 526 q 457 478 447 482 m 242 560 l 271 550 q 300 539 283 546 q 294 706 296 636 q 286 693 290 700 q 244 579 250 639 l 242 560 m 428 319 q 447 351 453 347 q 426 360 444 354 q 428 319 426 336 z "},"&":{"ha":950,"x_min":28,"x_max":897,"o":"m 850 496 q 871 414 897 442 q 861 399 864 406 q 845 378 860 389 q 790 344 831 367 q 739 314 739 315 q 749 299 739 313 q 768 238 768 272 q 742 147 768 206 q 678 44 714 86 q 599 -19 643 3 q 490 -56 543 -47 q 428 -60 469 -60 q 372 -58 386 -61 q 189 17 282 -44 q 57 158 97 79 q 39 283 29 214 q 93 421 49 353 q 140 474 106 440 q 199 526 174 508 q 219 543 218 542 q 219 544 219 543 q 216 549 218 546 q 210 554 214 551 q 203 560 207 557 q 194 567 199 564 q 117 653 150 603 q 72 756 85 704 q 72 863 61 806 q 136 1007 89 943 q 313 1124 201 1093 q 367 1131 333 1129 q 424 1126 401 1132 q 503 1103 460 1121 q 572 1068 547 1086 l 588 1058 l 597 1067 q 663 1068 624 1089 q 693 1044 675 1063 q 718 1013 711 1025 q 723 983 724 999 q 714 929 722 968 q 696 851 703 883 q 671 779 690 824 q 640 722 651 735 q 618 715 632 714 q 544 758 585 718 q 506 831 506 796 q 510 874 506 844 q 520 931 514 903 q 531 969 526 958 q 507 967 535 981 q 497 963 503 965 q 399 874 450 939 q 377 842 389 861 q 356 801 365 822 q 340 764 346 781 q 329 695 332 735 q 331 632 326 656 l 335 615 l 349 613 q 439 613 361 611 q 524 615 511 615 q 550 608 538 614 q 581 582 568 600 q 586 557 593 564 q 589 546 583 554 q 589 511 601 525 q 493 438 568 489 q 401 356 444 404 q 333 264 357 308 q 312 206 322 243 q 301 140 301 169 q 303 100 300 111 l 304 89 l 338 82 q 456 71 403 65 q 547 99 514 76 q 642 211 608 140 q 660 265 667 265 q 615 238 657 264 q 492 167 510 169 q 468 172 482 165 q 441 188 454 178 q 417 213 428 199 q 403 240 407 226 q 421 289 396 258 q 504 369 440 313 q 618 461 568 425 q 699 517 674 503 q 743 533 725 532 q 772 536 758 533 q 850 496 810 542 z "},"'":{"ha":275,"x_min":-4,"x_max":268,"o":"m 235 1003 q 250 890 267 940 q 206 799 233 840 q 168 751 192 778 q 135 717 144 724 q 100 713 119 706 q 78 724 92 715 q 63 739 65 733 q 46 753 58 744 q 21 782 21 765 q 35 815 21 792 q 65 857 49 838 q 100 901 89 883 l 111 919 l 104 922 q 51 950 74 935 q 15 983 28 965 q -1 1018 1 1000 q 17 1071 -4 1044 q 100 1097 47 1114 q 131 1089 118 1090 q 186 1056 150 1086 q 235 1003 222 1026 z "},"(":{"ha":461,"x_min":38,"x_max":460,"o":"m 360 67 q 404 -4 400 7 q 401 -39 414 -26 q 378 -46 394 -46 q 349 -40 363 -46 q 301 -17 321 -31 q 240 38 282 -3 q 122 181 165 113 q 59 326 79 249 q 39 493 39 404 q 140 913 39 707 q 171 965 151 933 q 208 1020 190 996 q 232 1049 225 1044 q 274 1054 242 1056 q 408 1006 344 1051 q 460 932 460 969 q 401 764 460 913 q 306 444 328 576 q 291 267 289 349 q 313 143 293 185 q 360 67 319 126 z "},")":{"ha":390,"x_min":-25,"x_max":351,"o":"m 303 704 q 350 421 350 581 q 304 118 350 261 q 246 28 290 74 q 196 -15 213 -7 q 157 -15 179 -22 q 83 31 119 -4 q 36 99 44 67 q 35 115 33 108 q 49 147 38 121 q 69 202 64 181 q 90 267 75 224 q 128 460 118 349 q 128 665 139 571 q 99 790 121 735 q 51 890 86 822 q 0 976 15 957 q -17 1008 -10 989 q -25 1036 -25 1026 q -1 1066 -25 1063 q 63 1050 22 1069 q 188 938 138 1013 q 249 828 215 897 q 303 704 282 760 z "},"*":{"ha":419,"x_min":24,"x_max":396,"o":"m 382 840 q 394 813 394 825 q 382 801 394 801 q 325 810 374 801 q 276 818 276 819 q 307 773 274 817 q 349 722 340 729 q 367 685 374 700 q 344 682 363 674 q 269 760 324 690 q 249 785 260 772 q 234 806 239 799 q 228 813 229 813 q 223 810 228 814 q 211 740 218 806 q 200 668 204 674 q 174 669 196 658 q 151 690 161 676 q 142 717 142 704 l 142 728 l 111 700 q 74 672 83 675 q 51 681 65 669 q 24 724 24 706 q 32 740 24 731 q 75 785 40 750 q 126 840 125 838 q 124 842 126 840 q 116 844 121 843 q 104 847 111 846 q 54 869 71 854 q 42 888 46 878 q 40 901 38 897 q 124 899 43 907 q 153 897 151 896 q 132 921 154 897 q 60 1014 69 992 q 61 1028 56 1024 q 149 956 75 1042 q 161 943 160 942 q 168 983 163 944 q 193 1058 179 1056 q 203 1055 197 1058 q 216 1046 210 1051 q 225 1035 222 1040 q 228 999 232 1025 q 225 949 225 974 l 225 925 l 253 947 q 324 1000 310 992 q 349 1007 338 1008 q 374 979 364 1003 q 372 950 385 956 q 349 930 368 949 q 312 892 329 911 q 296 874 294 874 q 328 867 300 872 q 362 856 353 860 q 382 840 371 851 z "},"+":{"ha":725,"x_min":-4,"x_max":721,"o":"m 647 664 q 697 608 675 651 q 713 539 719 564 q 694 521 708 526 q 669 508 681 514 q 561 492 657 501 q 471 482 519 488 q 474 449 472 465 q 478 372 479 386 q 465 313 472 326 q 409 263 453 285 q 340 247 365 240 q 322 265 329 251 q 311 290 317 279 q 294 399 304 303 q 286 475 292 431 q 78 478 94 472 q 22 535 46 489 q 15 600 -3 582 q 95 627 29 613 q 238 647 161 642 q 278 651 253 649 q 279 881 274 864 q 338 938 292 914 q 401 944 385 963 q 419 901 410 935 q 438 820 429 868 q 450 722 446 772 q 454 667 451 703 q 511 671 483 669 q 588 676 574 678 q 647 664 633 671 z "},",":{"ha":288,"x_min":17,"x_max":289,"o":"m 256 38 q 271 -75 288 -25 q 226 -167 254 -125 q 189 -215 213 -187 q 156 -249 165 -242 q 121 -253 140 -260 q 99 -240 113 -249 q 83 -226 86 -232 q 67 -212 79 -221 q 42 -183 42 -200 q 56 -151 42 -174 q 86 -107 69 -128 q 121 -64 110 -82 l 132 -44 l 125 -43 q 51 1 79 -25 q 19 53 24 26 q 38 106 17 79 q 121 132 68 149 q 151 124 139 125 q 207 92 171 122 q 256 38 243 63 z "},"-":{"ha":749,"x_min":8,"x_max":731,"o":"m 660 640 q 695 608 678 632 q 721 558 713 585 q 725 515 729 532 q 707 497 721 503 q 682 485 693 490 q 574 469 669 479 q 481 458 529 465 q 267 451 431 453 q 90 454 104 449 q 34 513 58 465 q 28 576 10 560 q 108 603 42 589 q 250 624 174 618 q 342 633 288 626 q 428 640 393 639 q 523 648 460 642 q 600 653 586 654 q 660 640 646 647 z "},".":{"ha":285,"x_min":19,"x_max":265,"o":"m 233 97 q 255 75 246 88 q 264 40 264 63 q 257 -18 264 15 q 243 -62 250 -51 q 164 -85 221 -103 q 85 -44 122 -72 q 32 17 49 -15 q 21 61 22 36 q 29 106 19 86 q 48 131 36 119 q 74 149 60 142 q 103 157 88 156 q 204 121 157 161 q 233 97 221 106 z "},"/":{"ha":624,"x_min":18,"x_max":556,"o":"m 544 971 q 553 932 554 949 q 534 864 551 917 q 491 744 517 811 q 443 626 465 678 q 403 535 425 588 q 363 440 382 483 q 261 183 268 221 q 240 130 258 158 q 204 93 222 101 q 142 90 181 81 q 43 142 82 104 q 24 167 29 154 q 19 206 19 181 q 42 297 19 251 q 64 358 54 324 q 158 632 96 469 q 269 880 211 769 q 374 1039 328 990 q 408 1063 393 1058 q 446 1058 422 1067 q 485 1038 465 1051 q 519 1006 504 1024 q 544 971 535 989 z "},"=":{"ha":767,"x_min":18,"x_max":743,"o":"m 669 558 q 719 502 697 546 q 735 433 742 458 q 717 415 731 422 q 692 403 703 408 q 583 388 679 397 q 490 378 539 383 q 277 369 440 371 q 100 372 114 368 q 44 431 68 385 q 38 494 19 478 q 117 522 51 508 q 260 542 183 536 q 351 551 297 546 q 438 558 403 557 q 533 566 469 560 q 610 571 596 572 q 669 558 656 565 m 100 658 q 44 716 68 669 q 38 781 19 763 q 117 808 51 793 q 260 828 183 822 q 351 838 297 831 q 438 844 403 843 q 533 852 469 846 q 610 857 596 858 q 669 844 656 851 q 719 788 697 832 q 735 719 742 744 q 717 701 731 707 q 692 689 703 694 q 583 672 679 682 q 490 663 539 668 q 277 655 440 657 q 100 658 114 653 z "},"?":{"ha":801,"x_min":64,"x_max":785,"o":"m 778 769 q 763 653 785 717 q 647 450 733 567 q 557 292 582 361 q 515 235 540 247 q 471 238 500 226 q 411 278 442 250 q 344 399 364 322 q 345 476 338 426 q 371 568 353 525 q 384 598 378 585 q 399 626 390 611 q 419 660 407 640 q 447 703 432 679 q 489 763 463 726 q 554 904 547 849 q 554 919 556 914 q 547 927 553 924 q 524 935 540 931 q 313 935 400 974 q 219 853 246 904 q 201 728 189 796 q 228 672 207 699 q 241 658 236 661 q 263 653 246 656 q 299 635 285 647 q 310 618 310 624 q 301 608 311 613 q 239 611 272 596 q 176 656 211 625 q 122 715 142 686 q 69 889 64 801 q 199 1088 79 1029 q 343 1122 260 1118 q 426 1116 390 1125 q 517 1081 461 1107 q 674 965 604 1038 q 778 769 765 871 m 476 94 q 486 78 476 89 q 497 39 503 58 q 464 7 490 14 q 418 8 446 1 q 328 60 364 21 q 306 128 294 96 q 346 160 314 156 q 419 147 378 165 q 458 121 440 138 q 476 94 476 104 z "},"@":{"ha":1068,"x_min":33,"x_max":1038,"o":"m 1028 690 q 1035 618 1033 664 q 1033 543 1038 572 q 947 296 1017 399 q 896 253 924 260 q 743 294 835 235 q 700 331 724 308 q 667 371 676 354 q 651 382 654 392 q 640 360 651 379 q 579 303 614 319 q 539 297 563 296 q 458 324 500 300 q 386 387 417 347 q 346 469 356 426 q 347 550 340 494 q 365 617 351 582 q 398 681 379 651 q 439 725 417 710 q 506 760 472 753 q 642 725 569 775 q 660 710 650 719 q 678 693 669 701 q 694 677 688 685 q 700 667 700 669 q 728 661 703 661 q 776 650 754 661 q 836 596 819 628 q 839 493 847 575 q 836 419 835 433 l 839 406 l 846 411 q 892 464 865 424 q 931 540 918 504 q 950 705 960 621 q 899 829 940 789 q 843 876 867 861 q 779 904 819 890 q 747 913 757 911 q 704 914 736 914 q 436 825 549 914 q 319 685 367 771 q 257 499 272 599 q 265 251 232 343 q 311 176 282 206 q 388 140 336 151 q 467 140 421 133 q 551 163 513 146 q 593 172 572 172 q 692 136 653 172 q 707 97 718 113 q 592 40 686 64 q 460 26 518 22 q 350 49 411 31 q 139 161 217 88 q 53 289 75 222 q 38 395 42 321 q 40 517 33 469 q 265 950 82 815 q 563 1029 390 1043 q 641 1019 607 1025 q 706 1003 675 1013 q 772 975 736 993 q 819 952 800 963 q 858 928 839 942 q 895 899 878 914 q 936 860 913 883 q 989 797 975 821 q 1028 690 1013 754 m 651 578 l 658 600 l 653 608 q 646 622 646 618 q 638 617 646 625 q 588 542 611 592 q 561 474 576 518 q 546 421 546 429 q 542 402 546 417 q 535 372 539 388 q 529 351 532 357 q 533 347 526 344 l 546 356 q 595 410 576 375 q 633 515 614 444 q 651 578 644 556 z "},"A":{"ha":803,"x_min":-3,"x_max":792,"o":"m 778 89 q 788 26 790 42 q 778 6 785 13 q 754 -3 771 0 q 694 -1 726 -10 q 622 29 660 7 q 553 92 576 56 q 490 363 506 163 l 489 389 l 442 390 q 329 389 407 392 q 250 383 251 386 q 229 332 247 382 q 140 99 176 183 q 110 47 125 64 q 81 28 96 29 q 36 42 54 25 q 29 61 28 50 q 40 92 32 71 q 64 165 49 114 q 100 286 79 218 q 128 382 131 381 q 88 380 126 383 q 38 382 50 376 q 0 414 10 394 q -3 424 -3 419 q 4 432 -3 428 q 22 440 11 436 q 53 447 33 443 q 97 457 75 451 q 139 467 124 463 l 156 471 l 176 538 q 260 793 232 718 q 322 918 289 868 q 399 1000 358 974 q 476 1022 429 1021 q 561 1006 522 1024 q 635 957 600 990 q 690 888 671 924 q 722 783 714 843 q 731 606 731 724 q 742 315 731 464 q 753 189 747 229 q 778 89 760 149 m 513 858 l 514 907 l 501 900 q 451 858 474 883 q 406 793 428 832 q 363 697 385 754 q 317 578 346 657 q 288 495 288 499 q 299 493 288 492 q 351 499 310 496 q 439 503 393 501 l 485 506 l 488 554 q 493 644 489 603 q 513 858 510 799 z "},"B":{"ha":754,"x_min":25,"x_max":747,"o":"m 722 692 q 644 520 703 604 q 511 393 585 436 l 490 381 l 514 371 q 598 319 564 351 q 642 249 632 286 q 639 171 651 211 q 615 124 633 151 q 571 78 597 97 q 483 36 528 46 q 410 35 442 26 q 332 75 365 44 q 301 113 317 89 l 286 136 l 285 114 l 282 90 l 274 89 q 258 82 265 88 q 205 68 244 68 q 140 81 165 68 q 93 138 124 89 q 68 224 83 154 q 46 356 53 293 q 47 710 26 542 q 100 972 68 865 q 107 994 104 986 q 113 1010 110 1003 q 120 1022 117 1017 q 127 1029 124 1026 q 136 1035 131 1032 q 168 1038 149 1040 q 221 1015 196 1032 q 253 981 246 999 q 260 932 258 968 q 257 694 265 847 q 254 497 249 514 q 265 540 257 507 q 351 828 306 718 q 463 1004 399 946 q 585 1040 528 1063 q 640 1004 611 1029 q 689 951 669 979 q 728 865 717 908 q 722 692 746 796 m 510 307 q 396 308 482 318 q 314 314 339 303 q 301 319 301 319 q 298 305 300 319 q 301 281 296 290 q 313 247 307 271 q 339 163 321 207 q 372 100 357 118 l 382 89 l 396 94 q 424 110 410 100 q 464 144 439 119 q 500 192 489 169 q 521 269 521 235 q 510 307 522 303 m 353 443 q 518 683 453 522 q 567 906 550 763 q 565 921 568 921 q 563 921 565 921 q 539 908 553 917 q 513 887 525 899 q 487 860 500 875 q 465 833 474 846 q 339 497 399 733 q 321 421 319 421 q 325 422 321 421 q 353 443 331 425 z "},"C":{"ha":628,"x_min":28,"x_max":619,"o":"m 497 903 q 440 865 482 903 q 375 796 397 828 q 285 556 319 710 q 260 269 251 401 q 289 92 267 154 q 302 59 294 75 q 313 43 310 43 q 357 64 325 43 q 458 204 428 107 q 481 306 472 249 q 504 415 496 410 q 544 418 517 424 q 576 400 571 413 q 575 336 581 392 q 560 231 569 281 q 460 32 532 100 q 367 -22 415 -10 q 325 -28 353 -26 q 285 -28 297 -31 q 249 -21 276 -28 q 110 63 161 -1 q 29 393 29 164 q 69 685 29 544 q 199 943 119 857 q 263 994 224 971 q 335 1026 303 1018 q 483 1007 404 1042 q 591 915 563 972 q 592 765 619 857 q 567 718 579 719 q 529 733 546 714 l 519 744 l 519 793 q 507 892 519 858 q 497 903 501 903 z "},"D":{"ha":803,"x_min":21,"x_max":789,"o":"m 740 817 q 775 547 789 717 q 688 240 764 401 q 626 131 661 185 q 564 51 592 78 q 510 9 544 32 q 461 -19 476 -14 q 428 -31 450 -22 q 310 -47 367 -54 q 186 -6 213 -36 q 176 8 178 4 q 182 18 175 13 q 216 26 192 28 q 260 15 240 25 q 317 19 283 3 q 369 63 333 28 q 418 126 404 99 q 472 289 442 174 q 514 453 503 399 q 535 614 528 524 q 536 838 547 774 l 532 861 l 524 857 q 463 796 494 839 q 331 475 399 711 q 257 90 278 292 q 250 71 256 72 q 239 63 244 69 q 157 57 217 39 q 82 110 99 74 q 72 129 78 122 q 54 206 64 142 q 50 640 22 426 q 76 796 61 719 q 108 924 92 872 q 135 985 124 975 q 161 996 142 992 q 209 998 185 1001 q 256 984 233 994 q 285 960 278 974 q 282 786 294 939 q 258 497 258 518 q 264 503 258 485 q 275 540 267 513 q 371 821 328 729 q 442 925 404 890 q 553 953 486 965 q 631 925 594 944 q 696 878 668 906 q 740 817 724 850 z "},"E":{"ha":610,"x_min":22,"x_max":600,"o":"m 597 900 q 596 866 600 888 q 584 824 592 844 q 567 785 576 803 q 550 763 558 768 q 519 756 538 754 q 489 771 501 758 q 483 781 483 776 q 483 797 482 785 q 481 899 490 863 q 474 915 475 915 q 419 881 464 915 q 337 786 378 846 q 275 667 296 726 q 257 561 254 607 q 258 553 258 558 q 267 533 260 536 q 322 531 275 531 q 329 531 326 531 q 336 531 332 531 q 343 531 340 531 q 439 528 424 532 q 506 492 489 518 q 500 469 517 476 q 475 465 492 467 q 427 455 456 463 q 388 440 399 447 q 337 392 371 431 q 285 321 303 353 q 241 185 249 260 q 260 63 233 111 l 269 42 l 290 43 q 364 69 325 44 q 424 135 406 97 q 450 249 442 174 q 456 292 454 289 q 469 297 458 294 q 495 297 481 300 q 517 289 510 294 q 522 275 521 283 q 522 224 522 267 q 516 150 521 175 q 497 99 511 125 q 460 48 485 74 q 407 6 435 22 q 379 -11 397 0 q 269 -33 333 -39 q 144 6 203 -26 q 54 86 86 38 q 35 125 44 101 q 24 184 25 149 q 29 244 22 219 q 60 323 40 288 q 111 393 79 358 q 193 468 143 428 l 204 476 l 176 490 q 68 594 101 528 q 47 685 47 636 q 79 815 47 747 q 167 939 111 883 q 233 991 196 968 q 304 1022 271 1014 q 427 1023 360 1038 q 543 974 494 1008 q 597 900 592 940 z "},"F":{"ha":615,"x_min":44,"x_max":628,"o":"m 588 1013 q 618 960 610 990 q 614 915 626 931 q 604 902 610 910 q 588 889 599 894 q 413 876 558 876 l 351 876 l 349 861 q 329 732 339 814 q 313 575 313 597 q 389 572 313 572 q 492 567 474 574 q 510 526 511 560 q 489 476 510 488 q 422 476 478 472 q 338 482 367 481 l 307 485 l 306 472 q 298 272 300 422 q 300 81 296 121 q 297 31 304 51 q 284 6 292 14 q 261 -6 276 -3 q 200 -7 236 -12 q 133 18 163 1 q 83 74 100 36 q 70 122 74 92 q 58 269 67 153 q 46 610 46 464 q 60 858 46 765 q 125 1018 83 1004 q 197 1031 136 1022 q 286 1042 257 1040 q 481 1042 368 1049 q 551 1033 529 1039 q 588 1013 574 1026 z "},"G":{"ha":710,"x_min":-3,"x_max":690,"o":"m 628 524 q 677 472 664 506 q 688 365 690 438 q 668 188 683 261 q 625 57 653 114 q 518 -51 588 -18 q 487 -65 500 -61 q 458 -71 474 -69 q 415 -74 442 -72 q 343 -68 368 -75 q 257 -25 289 -56 q 225 36 222 8 q 244 79 228 57 q 281 113 260 101 q 375 135 318 131 q 403 136 394 135 q 416 140 413 138 q 421 149 419 143 q 443 265 443 256 q 421 254 443 271 q 289 219 368 211 q 83 319 164 235 q 19 551 -1 410 q 79 774 38 675 q 152 890 107 838 q 244 968 197 943 q 380 1001 307 1000 q 514 969 453 1001 q 579 908 558 946 q 601 808 600 871 q 594 753 601 765 q 583 740 588 742 q 556 740 572 736 q 531 751 539 743 q 522 790 524 758 q 515 840 519 822 q 504 868 511 854 q 493 882 497 882 q 469 852 490 882 q 435 801 447 822 q 317 393 329 629 q 317 338 315 356 l 319 321 l 347 336 q 397 367 379 351 q 439 417 414 383 q 475 476 468 456 q 517 532 488 518 q 628 524 563 554 m 392 63 l 396 74 l 383 72 q 319 26 335 64 q 324 1 314 13 q 330 -3 328 -3 q 340 0 332 -3 q 367 24 351 6 q 392 63 383 43 z "},"H":{"ha":874,"x_min":3,"x_max":833,"o":"m 824 124 q 831 69 832 81 q 813 39 829 57 q 724 13 788 14 q 669 15 686 11 q 614 49 639 24 q 601 65 603 58 q 594 89 599 71 q 574 425 574 204 l 574 554 l 457 554 l 456 436 q 447 249 454 317 q 417 107 435 143 q 351 43 397 67 q 243 15 299 15 q 36 149 103 17 q 9 308 3 215 q 57 463 15 400 q 163 551 93 518 l 175 558 l 179 618 q 235 967 197 906 q 257 986 244 981 q 294 992 269 992 q 381 970 339 992 q 430 922 422 949 q 446 808 438 896 q 454 664 454 719 q 456 610 454 624 l 458 596 l 578 596 l 579 606 q 581 626 581 614 q 593 740 581 651 q 618 890 606 828 q 668 999 636 983 q 733 1001 692 1010 q 799 971 775 992 q 820 923 817 954 q 819 778 824 892 q 810 346 807 510 q 813 203 811 242 q 824 124 815 165 m 171 121 q 182 217 182 143 q 178 326 182 250 q 174 449 174 403 l 174 494 l 151 472 q 104 388 119 438 q 99 305 99 364 q 106 217 99 246 q 150 131 121 165 q 166 114 165 114 q 171 121 167 114 z "},"I":{"ha":468,"x_min":15,"x_max":497,"o":"m 469 61 q 489 25 482 47 q 492 -11 496 3 q 470 -25 488 -22 q 363 -29 453 -28 q 235 -33 267 -29 q 154 -37 206 -36 l 104 -39 l 93 -31 q 65 22 67 -8 q 73 42 65 35 q 99 54 81 49 q 117 61 117 60 q 107 78 117 63 q 93 113 97 94 q 83 194 89 131 q 64 486 64 388 q 67 601 64 542 q 76 717 69 661 q 90 822 82 772 q 110 907 99 871 q 113 931 115 929 q 88 928 111 933 q 47 926 58 922 q 26 949 35 929 q 29 986 15 975 q 110 1015 47 999 q 328 1043 193 1036 q 390 1039 364 1046 q 424 1028 417 1032 q 445 1006 435 1022 q 458 973 456 989 q 456 946 461 957 q 415 942 451 942 q 346 943 379 940 l 313 946 l 325 932 q 351 875 347 910 q 356 733 353 858 q 360 592 358 611 q 364 382 361 574 q 374 100 365 142 q 377 84 376 85 q 413 79 378 83 q 469 61 457 75 z "},"J":{"ha":668,"x_min":4,"x_max":667,"o":"m 650 997 q 656 938 665 961 q 649 926 651 926 q 625 925 649 926 q 574 922 603 925 l 546 919 l 547 910 q 551 854 547 899 q 578 382 565 724 q 568 143 583 211 q 514 38 553 75 q 358 -28 461 -15 q 285 -26 325 -31 q 157 6 215 -21 q 67 69 99 32 q 15 181 35 110 q 6 254 6 221 q 18 347 6 288 q 35 415 29 401 q 53 433 40 429 q 83 435 64 438 q 114 428 103 433 q 131 410 129 419 q 129 363 133 401 q 125 268 125 317 q 132 193 125 219 q 186 89 153 122 q 242 61 219 56 q 290 129 281 72 q 294 375 294 154 q 331 892 292 743 q 333 908 335 907 q 288 906 332 910 q 218 901 232 899 q 196 924 204 904 q 196 961 185 950 q 299 994 206 971 q 508 1028 354 1008 q 590 1029 561 1035 q 631 1017 619 1024 q 650 997 643 1011 z "},"K":{"ha":789,"x_min":39,"x_max":794,"o":"m 781 90 q 790 68 793 79 q 771 50 788 57 q 729 45 756 44 q 683 51 703 46 q 600 105 644 64 q 522 201 556 146 q 490 265 514 215 q 458 338 467 314 q 451 349 454 349 q 400 211 443 339 q 363 65 371 122 q 357 36 360 54 q 354 28 357 29 q 343 25 351 26 q 311 17 332 24 q 254 10 290 11 q 194 13 218 8 q 97 56 135 24 q 74 86 81 69 q 58 153 67 103 q 42 357 44 236 q 47 584 40 451 q 61 760 53 717 q 71 817 64 775 q 100 933 82 875 q 124 992 113 972 q 148 1022 135 1013 q 181 1031 161 1031 q 254 1008 214 1031 q 311 956 294 985 q 333 874 328 929 q 342 613 338 819 q 350 335 349 335 q 372 407 353 338 q 453 650 406 521 q 533 846 500 779 q 639 990 581 940 q 681 1020 669 1017 q 713 1013 692 1024 q 754 979 736 1001 q 769 943 772 957 q 710 864 765 929 q 643 765 681 829 q 596 677 626 738 q 541 564 565 617 q 517 506 517 511 q 524 490 517 501 q 568 406 532 479 q 735 143 660 222 q 769 103 769 106 q 781 90 769 100 z "},"L":{"ha":574,"x_min":40,"x_max":610,"o":"m 556 119 q 581 75 610 99 q 503 53 564 61 q 443 38 479 49 q 360 17 393 21 q 278 14 328 13 q 178 32 219 17 q 71 119 101 60 q 46 210 57 146 q 42 364 42 235 q 47 554 42 493 q 108 989 71 850 q 130 1033 118 1024 q 171 1042 142 1043 q 225 1026 197 1039 q 269 994 253 1013 q 297 925 290 969 q 308 506 306 872 q 317 100 310 107 q 356 108 318 99 q 490 125 422 124 q 556 119 542 125 z "},"M":{"ha":1326,"x_min":43,"x_max":1297,"o":"m 1296 603 q 1296 521 1297 557 q 1289 440 1294 485 q 1272 314 1283 394 q 1251 164 1264 260 l 1238 67 l 1222 36 q 1198 -1 1208 7 q 1161 -8 1188 -8 q 1063 20 1114 -8 q 997 83 1011 49 q 983 176 982 119 q 1029 576 983 249 q 1044 710 1047 707 q 1036 701 1044 711 q 1018 677 1028 692 q 1000 650 1008 663 q 890 413 946 561 q 793 107 833 264 q 769 32 778 44 q 729 18 760 19 q 625 44 679 15 q 561 110 571 74 q 549 169 556 126 q 543 229 543 211 q 560 492 543 322 q 582 824 585 749 l 582 840 l 569 826 q 535 778 554 808 q 496 710 515 747 q 463 638 476 674 q 361 271 399 483 l 351 222 l 356 151 q 352 56 358 81 q 340 24 346 31 q 300 -3 328 6 q 215 -7 261 -14 q 136 17 171 0 q 90 54 101 33 q 72 97 82 68 q 60 142 63 125 q 47 313 54 172 q 47 497 44 367 q 57 718 50 626 q 76 900 63 807 q 101 1024 90 993 q 175 1061 117 1067 q 285 1013 236 1057 q 326 933 313 986 q 349 692 349 842 l 349 624 l 363 672 q 447 911 404 828 q 506 989 475 965 q 569 1007 528 1007 q 647 994 607 1007 q 724 957 688 981 q 783 906 760 933 q 819 849 806 878 q 838 783 832 821 q 847 690 844 746 l 850 639 l 863 674 q 916 784 883 728 q 975 867 949 840 q 1010 890 993 885 q 1132 869 1054 903 q 1275 732 1236 824 q 1291 679 1288 703 q 1296 603 1294 656 z "},"N":{"ha":876,"x_min":40,"x_max":849,"o":"m 740 947 q 822 801 796 900 q 840 565 847 701 q 801 240 832 415 q 758 64 781 117 q 722 8 738 15 q 658 3 699 -4 q 573 33 615 10 q 518 83 531 57 q 510 143 511 96 q 521 274 508 190 q 538 396 533 358 q 550 476 542 431 q 561 562 556 511 q 572 661 567 613 q 580 756 576 710 q 583 826 583 801 q 581 853 583 850 q 555 818 576 853 q 515 749 533 783 q 389 385 442 604 q 342 113 354 243 q 335 56 338 60 q 326 43 332 53 q 236 10 310 10 q 124 43 154 10 q 106 76 114 54 q 89 121 99 99 q 68 197 75 151 q 43 499 46 340 q 49 725 42 631 q 78 935 57 819 q 99 1021 90 999 q 119 1049 107 1043 q 198 1038 149 1060 q 261 983 247 1015 q 283 786 278 943 q 285 726 283 775 q 288 653 288 678 q 297 486 292 561 q 303 404 303 408 l 313 447 q 379 706 338 569 q 453 904 421 843 q 499 972 472 943 q 546 1008 525 1001 q 640 1002 583 1019 q 740 947 696 985 z "},"O":{"ha":682,"x_min":29,"x_max":651,"o":"m 643 783 q 650 703 650 749 q 637 513 650 631 q 606 318 624 394 q 557 144 582 210 q 505 56 535 86 q 431 14 475 26 q 383 8 414 10 q 340 7 353 6 q 222 40 260 19 q 172 85 208 49 q 119 143 135 121 q 47 314 72 204 q 36 366 39 344 q 32 413 33 388 q 31 486 31 439 q 40 642 31 579 q 74 779 49 704 q 188 982 118 918 q 368 1054 263 1054 q 476 1031 419 1054 q 569 968 532 1007 q 628 854 613 926 q 643 783 635 821 m 554 515 q 568 694 568 613 q 561 786 568 763 q 554 819 554 810 q 551 839 554 826 q 544 865 549 851 q 535 890 540 878 q 525 908 529 901 q 518 913 521 914 q 472 874 499 901 q 426 819 444 846 q 375 718 400 781 q 346 621 350 656 q 340 579 344 607 q 343 247 311 392 q 363 181 349 224 q 381 129 376 138 q 384 126 382 126 q 390 126 386 125 q 397 132 393 128 q 410 144 401 136 q 499 292 461 194 q 554 515 538 389 z "},"P":{"ha":833,"x_min":36,"x_max":826,"o":"m 796 835 q 811 623 825 740 q 749 433 797 506 q 640 332 703 367 q 542 296 596 306 q 465 292 524 293 q 374 294 406 292 q 347 297 349 297 q 343 194 346 296 q 338 82 340 93 q 329 53 336 72 l 324 33 l 304 26 q 213 21 261 11 q 128 68 156 32 q 85 142 99 107 q 60 251 72 176 q 40 451 44 350 q 49 688 38 575 q 50 707 49 693 q 53 741 51 721 q 57 774 56 761 q 93 981 71 914 q 111 1024 101 1010 q 136 1044 121 1038 q 178 1050 153 1051 q 268 1024 222 1047 q 356 933 344 988 q 351 753 361 907 q 349 689 347 689 q 349 690 349 689 q 351 696 350 692 q 353 705 351 700 q 358 717 356 710 q 361 729 360 724 q 424 888 385 808 q 494 999 461 967 q 568 1031 526 1031 q 644 1013 603 1032 q 756 919 717 979 q 796 835 779 883 m 558 586 q 595 746 583 663 q 601 892 607 829 q 596 929 599 928 q 578 922 594 932 q 547 897 563 911 q 418 663 464 821 q 360 397 379 531 l 358 383 l 374 385 q 401 390 390 386 q 455 417 428 396 q 499 463 482 438 q 531 522 511 482 q 558 586 550 563 z "},"Q":{"ha":760,"x_min":25,"x_max":758,"o":"m 732 103 q 757 64 757 68 q 731 38 757 50 q 682 29 715 31 q 617 37 640 28 q 568 74 593 46 l 546 97 l 536 85 q 513 58 526 74 q 485 31 499 43 q 467 17 472 19 q 432 5 454 10 q 385 -2 410 0 q 340 -1 361 -4 q 167 63 238 8 q 94 142 128 92 q 47 243 61 193 q 31 323 35 289 q 26 426 26 357 q 40 594 26 526 q 106 788 61 701 q 206 913 144 861 q 340 983 268 964 q 503 988 418 1003 q 625 933 589 972 q 663 849 649 907 q 672 774 669 824 q 672 703 675 725 q 669 646 669 682 q 664 542 669 618 q 654 435 658 467 q 631 313 644 371 q 621 272 621 278 q 642 238 621 267 q 685 172 664 206 q 732 103 707 136 m 564 406 q 582 613 588 513 q 563 756 576 714 q 517 853 543 814 l 507 868 l 482 842 q 385 675 421 778 q 339 376 335 538 q 388 133 343 221 q 400 117 396 118 q 431 142 407 119 q 464 176 453 163 l 475 192 l 458 226 q 415 381 415 318 q 420 413 415 403 q 442 432 425 424 q 482 439 457 439 q 526 431 511 439 q 550 403 542 424 l 558 385 l 564 406 z "},"R":{"ha":839,"x_min":33,"x_max":829,"o":"m 800 899 q 829 771 828 842 q 817 678 829 724 q 801 626 810 649 q 780 581 793 603 q 744 531 767 558 q 626 414 690 457 q 528 358 578 382 q 460 333 478 333 q 447 329 447 333 q 450 326 447 328 q 464 304 453 324 q 482 276 475 285 q 515 228 489 267 q 553 172 540 190 q 612 118 565 157 q 671 74 658 79 q 686 56 686 67 q 679 44 686 53 q 639 19 667 29 q 585 13 611 10 q 526 33 565 14 q 471 65 488 51 q 406 147 439 92 q 349 269 372 203 q 344 281 346 275 q 340 289 342 286 q 339 290 339 292 q 333 251 338 289 q 326 167 329 214 q 322 97 324 121 q 313 42 322 47 q 300 31 306 39 q 245 5 286 14 q 169 3 204 -4 q 149 9 160 4 q 131 19 139 14 q 119 29 122 25 q 108 47 115 38 q 89 81 93 68 q 76 136 85 94 q 43 385 53 264 q 51 690 33 515 q 101 961 68 864 q 128 1022 118 1013 q 169 1032 138 1032 q 240 1015 204 1031 q 294 975 276 999 q 304 947 303 964 q 300 888 306 931 q 288 600 288 793 l 288 468 l 299 515 q 421 906 356 786 q 483 999 447 954 q 517 1028 499 1015 q 556 1049 536 1042 q 594 1057 576 1057 q 638 1049 615 1057 q 684 1026 661 1040 q 728 992 707 1011 q 768 949 750 972 q 800 899 786 925 m 611 917 l 614 946 l 603 940 q 507 850 549 913 q 444 718 475 800 q 425 659 436 696 q 403 584 414 622 q 383 511 392 546 q 369 455 374 476 q 367 433 365 433 q 392 453 369 433 q 460 524 425 481 q 514 601 496 568 q 571 735 543 660 q 611 917 607 835 z "},"S":{"ha":597,"x_min":25,"x_max":581,"o":"m 389 836 q 304 633 307 754 q 321 519 303 569 q 335 484 328 499 q 357 449 342 469 q 392 407 372 429 q 450 344 413 385 q 517 270 500 293 q 546 218 535 247 q 563 142 565 171 q 551 108 561 128 q 492 46 535 72 q 392 10 449 19 q 327 4 369 6 q 272 6 285 3 q 226 14 261 7 q 96 67 146 28 q 71 92 79 79 q 50 139 63 104 q 38 200 33 185 q 72 218 42 215 q 158 181 140 221 q 206 108 181 131 q 219 98 215 99 q 235 99 222 97 q 307 125 272 103 q 333 153 326 138 q 324 247 356 196 q 218 354 304 278 q 130 445 158 408 q 69 547 101 482 q 29 753 26 638 q 53 875 32 822 q 167 1015 88 964 q 332 1057 246 1067 q 501 977 429 1046 q 576 822 572 908 q 567 726 581 765 q 561 712 564 714 q 551 708 558 710 q 528 716 543 708 q 508 732 514 724 q 499 769 504 740 q 478 844 490 804 q 460 888 465 883 q 431 871 457 889 q 389 836 406 853 z "},"T":{"ha":560,"x_min":-3,"x_max":575,"o":"m 558 1015 q 573 967 571 990 q 564 938 575 943 q 540 931 558 933 q 417 922 485 919 l 356 924 l 358 917 q 361 713 360 911 q 365 389 361 513 q 365 196 368 263 q 361 94 363 131 q 359 68 360 76 q 356 55 358 60 q 346 44 353 50 q 339 33 339 38 q 313 11 339 25 q 263 0 294 3 q 211 4 231 -3 q 178 28 199 8 q 153 63 157 49 q 144 90 149 76 q 111 214 115 181 q 104 256 108 242 q 100 378 101 272 q 101 531 99 485 q 122 731 110 643 q 160 917 143 863 q 163 931 164 931 q 125 936 163 932 q 47 945 63 942 q 19 960 32 949 q 6 982 13 967 q -1 1006 -1 997 q 6 1020 -1 1015 q 36 1029 14 1025 q 254 1051 119 1043 q 388 1054 303 1054 q 485 1051 472 1054 q 515 1044 497 1049 q 558 1015 547 1040 z "},"U":{"ha":883,"x_min":29,"x_max":835,"o":"m 832 426 q 831 147 824 254 q 832 63 835 76 q 808 35 829 49 q 718 14 772 10 q 604 60 649 19 q 576 90 583 78 q 565 125 569 103 q 553 229 554 181 q 551 253 553 256 q 536 222 549 251 q 463 95 504 144 q 376 32 421 46 q 285 26 336 19 q 185 54 233 32 q 81 169 118 88 q 35 447 31 274 q 49 631 38 524 q 68 775 60 738 q 81 828 72 792 q 121 971 97 914 q 158 1025 136 1013 q 218 1028 179 1038 q 317 976 275 1014 q 356 910 349 947 q 356 765 363 874 q 351 650 353 710 q 347 540 350 590 q 344 349 344 490 q 349 174 343 208 q 356 136 354 139 q 367 142 357 133 q 390 168 376 151 q 415 203 403 185 q 564 561 490 314 q 582 649 576 603 q 619 892 600 814 q 667 990 640 976 q 735 992 688 1001 q 799 965 783 982 q 810 936 804 958 q 832 740 822 875 q 835 594 835 700 q 832 426 835 488 z "},"V":{"ha":689,"x_min":35,"x_max":667,"o":"m 647 956 q 664 940 661 950 q 664 893 667 931 q 651 753 661 849 q 636 614 639 647 q 544 176 604 306 q 478 76 514 111 q 397 31 442 40 q 306 31 353 21 q 243 53 269 38 q 183 100 217 68 q 104 219 132 151 q 42 529 65 322 q 36 690 36 579 q 42 843 36 800 q 94 1000 58 978 q 127 1012 106 1007 q 171 1013 149 1017 q 232 988 219 1006 q 263 786 243 969 q 315 407 283 581 q 375 169 347 233 q 386 150 385 150 q 409 179 389 150 q 439 228 429 208 q 489 369 461 274 q 574 840 551 593 q 592 953 583 946 q 616 959 596 958 q 647 956 636 960 z "},"W":{"ha":1099,"x_min":38,"x_max":1065,"o":"m 1056 992 l 1065 983 l 1065 893 q 1058 728 1065 804 q 1046 576 1053 665 q 989 207 1025 318 q 946 96 967 135 q 899 44 929 63 q 793 24 858 21 q 681 56 728 28 q 578 213 608 99 q 560 326 568 247 q 558 335 560 329 q 553 379 554 376 l 547 368 q 542 349 546 364 q 540 342 542 344 q 463 89 496 160 q 426 35 444 53 q 379 10 407 17 q 289 6 338 -1 q 206 36 242 13 q 143 111 151 72 q 126 147 142 122 q 38 644 38 304 q 53 850 38 744 q 71 946 61 917 q 100 993 81 975 q 132 1010 114 1006 q 203 1004 163 1017 q 269 969 244 992 q 300 906 292 949 q 303 707 303 896 q 306 498 303 553 q 322 340 310 443 q 356 164 336 226 l 361 143 l 367 153 q 393 204 372 163 q 503 560 443 310 q 528 665 524 650 q 532 724 533 683 q 533 760 532 753 q 539 771 533 767 q 601 783 557 789 q 678 754 646 778 q 719 672 701 736 q 761 446 736 607 q 808 233 782 308 q 827 179 825 183 q 840 192 829 175 q 928 500 903 292 q 942 771 939 599 q 954 994 946 974 q 1000 1010 961 1011 q 1056 992 1039 1010 z "},"X":{"ha":664,"x_min":13,"x_max":672,"o":"m 650 972 q 669 944 668 954 q 660 913 671 933 q 556 779 619 846 q 489 704 508 728 q 417 611 463 671 q 372 547 372 551 q 436 367 372 536 q 513 194 482 247 q 535 136 535 156 q 541 110 535 128 q 544 85 547 93 q 497 43 540 61 q 414 29 453 25 q 390 35 399 31 q 365 54 382 39 q 346 71 349 71 q 329 85 343 71 q 231 236 293 119 q 207 278 208 275 q 203 276 206 279 q 198 267 201 272 q 190 254 194 261 q 104 79 133 150 q 94 59 97 64 q 83 53 90 54 q 49 52 68 47 q 22 68 29 57 q 46 169 14 82 q 131 364 78 256 l 150 403 l 142 426 q 49 829 63 633 q 55 969 40 936 q 125 1001 69 1001 q 167 997 147 1001 q 203 985 188 993 q 231 967 219 978 q 247 942 242 956 q 310 742 256 925 l 321 701 l 349 743 q 431 857 376 783 q 526 968 486 929 q 564 1002 557 997 q 581 1007 571 1007 q 650 972 615 1007 z "},"Y":{"ha":769,"x_min":17,"x_max":726,"o":"m 700 961 q 726 676 726 907 q 711 375 726 540 q 707 306 707 325 q 696 207 707 269 q 649 95 685 142 q 558 23 614 49 q 428 -6 501 -3 q 365 -3 389 -7 q 265 28 307 7 q 232 69 224 49 q 289 89 240 89 q 343 80 317 89 q 375 71 369 71 q 398 79 383 71 q 421 99 413 88 q 458 269 451 135 q 463 358 463 336 q 467 422 464 383 l 468 458 l 447 419 q 388 329 415 356 q 355 307 369 311 q 303 303 340 303 q 231 311 260 303 q 106 372 161 329 q 33 465 51 415 q 18 568 18 507 q 69 874 19 718 q 142 1029 111 1006 q 207 1030 163 1046 q 285 978 251 1014 q 318 910 311 949 q 324 809 325 869 q 315 599 324 749 q 315 454 310 510 q 317 424 317 443 l 317 403 l 331 417 q 443 629 382 474 q 489 778 479 722 q 571 1013 519 983 q 642 1009 597 1026 q 700 961 686 992 z "},"Z":{"ha":618,"x_min":-1,"x_max":622,"o":"m 599 60 q 611 22 621 36 q 517 15 606 17 q 285 0 394 14 q 156 -1 201 -12 q 70 35 113 7 q 11 93 28 64 q 0 126 1 113 q 7 169 -1 140 q 38 251 14 203 q 88 339 63 299 q 274 607 139 421 q 410 799 399 779 q 427 830 418 813 q 442 861 436 847 q 447 881 447 875 q 447 885 447 883 q 442 890 446 888 q 432 894 439 892 q 208 910 338 929 q 163 906 169 904 q 127 925 144 911 q 104 953 110 939 q 104 974 99 965 q 168 1004 117 989 q 292 1022 231 1022 q 472 976 404 1022 q 562 889 526 942 q 604 782 597 836 q 528 563 615 697 q 415 397 461 460 q 281 210 306 249 q 226 117 226 124 q 331 114 226 114 q 446 112 414 114 q 513 101 478 110 q 599 60 571 86 z "},"[":{"ha":517,"x_min":42,"x_max":447,"o":"m 368 69 q 422 26 397 56 q 447 -24 447 -3 q 426 -51 447 -43 q 363 -58 414 -57 q 288 -53 311 -58 q 168 7 222 -39 q 102 89 124 43 q 74 210 81 135 q 51 535 63 319 q 54 888 42 756 q 107 1071 65 1018 q 163 1099 128 1096 q 217 1095 181 1100 q 274 1083 253 1090 q 403 996 364 1053 q 413 950 422 965 q 403 944 410 944 q 368 944 397 943 q 317 939 326 944 q 281 842 290 926 q 274 482 276 806 q 271 124 272 158 q 274 85 268 88 q 313 82 279 83 q 368 69 347 81 z "},"\\":{"ha":769,"x_min":68,"x_max":700,"o":"m 689 218 q 700 170 700 194 q 690 132 700 146 q 618 76 667 99 q 536 60 569 54 q 507 74 524 63 q 481 100 490 86 q 299 422 404 211 q 178 697 247 526 q 103 897 135 803 q 71 1025 72 992 q 70 1047 69 1042 q 78 1058 71 1051 q 129 1074 92 1074 q 201 1058 167 1074 q 344 876 251 1035 q 600 389 415 756 q 665 261 654 282 q 689 218 678 240 z "},"]":{"ha":531,"x_min":61,"x_max":482,"o":"m 481 124 l 481 64 l 471 46 q 444 10 463 29 q 411 -19 426 -10 q 313 -46 383 -37 q 192 -44 233 -56 q 111 3 124 -28 q 114 26 104 18 q 164 44 124 33 q 249 83 224 60 q 272 114 267 101 q 276 156 276 126 q 271 228 275 189 q 265 315 267 268 q 263 378 264 361 q 257 661 260 418 q 251 840 254 803 q 236 975 242 969 q 200 983 235 976 q 83 1046 121 1000 q 73 1089 63 1074 q 125 1106 83 1104 q 238 1089 179 1106 q 338 1044 296 1072 q 428 924 406 1000 q 471 440 460 813 q 476 257 474 331 q 481 124 479 185 z "},"_":{"ha":786,"x_min":7,"x_max":767,"o":"m 764 42 q 762 15 765 24 q 748 0 758 7 q 707 -18 738 -7 q 656 -37 664 -35 q 547 -49 625 -46 q 417 -49 468 -53 q 218 -26 313 -42 q 90 3 124 -10 q 35 61 56 18 q 30 124 8 113 q 339 146 51 136 q 557 160 488 150 q 644 163 593 164 q 675 163 667 163 q 691 161 683 163 q 701 158 699 160 q 708 154 703 157 q 747 107 731 139 q 764 42 763 75 z "},"a":{"ha":628,"x_min":31,"x_max":624,"o":"m 601 63 q 615 32 624 46 q 567 15 606 14 q 492 33 529 15 q 427 78 463 47 q 381 132 392 110 l 372 150 l 364 129 q 293 22 332 46 q 252 15 281 15 q 204 18 224 14 q 103 72 146 31 q 47 176 64 110 q 34 240 36 215 q 32 325 32 265 q 40 451 32 401 q 176 782 78 686 q 215 815 196 803 q 255 831 235 826 q 301 833 275 835 q 485 747 404 829 q 543 590 542 688 q 538 550 543 558 q 524 543 532 542 q 517 544 519 543 q 515 544 515 544 q 521 529 515 544 q 533 414 528 508 q 558 171 543 256 q 572 115 561 150 q 586 75 582 81 q 601 63 590 71 m 463 581 l 469 578 l 463 603 q 436 663 454 629 q 413 696 418 696 q 396 683 410 696 q 308 543 349 643 q 253 335 267 443 q 250 156 242 247 q 254 136 251 135 q 275 179 257 139 q 339 336 307 249 q 364 433 356 381 q 403 571 383 554 q 414 576 406 574 q 431 581 422 579 q 446 583 440 583 q 463 581 456 583 z "},"b":{"ha":725,"x_min":38,"x_max":703,"o":"m 650 607 q 697 357 701 494 q 687 256 696 296 q 656 171 678 217 q 539 29 611 79 q 439 -17 489 -6 q 317 -25 389 -29 q 196 3 242 -19 q 143 54 143 31 q 145 60 143 57 q 150 66 147 63 q 157 72 153 69 q 165 75 161 74 q 167 78 174 78 q 160 78 165 78 q 94 94 121 79 q 81 107 86 99 q 64 140 75 115 q 40 438 38 197 q 61 706 43 581 q 143 1033 104 1011 q 177 1038 157 1040 q 218 1023 197 1035 q 247 997 239 1011 q 256 922 254 986 q 243 643 257 835 q 238 554 238 560 l 250 581 q 315 696 276 644 q 388 764 353 747 q 500 760 436 789 q 588 696 547 738 q 650 607 629 654 m 458 538 q 461 602 461 568 q 458 639 461 636 q 438 628 456 642 q 404 597 419 614 q 335 493 365 556 q 253 188 272 363 q 242 115 246 129 q 224 92 238 100 q 200 82 213 86 l 186 79 l 197 79 q 231 72 210 78 q 256 67 250 67 q 274 72 263 67 q 307 99 285 78 q 343 138 329 121 q 375 194 354 153 q 407 264 396 235 q 428 332 418 292 q 458 538 451 421 z "},"c":{"ha":635,"x_min":18,"x_max":615,"o":"m 604 693 q 614 647 614 674 q 606 603 614 621 q 584 578 597 583 q 549 578 571 572 q 532 585 539 581 q 520 597 525 589 q 511 617 515 604 q 488 659 501 640 q 468 678 475 678 q 431 640 458 678 q 383 561 404 603 q 326 387 347 485 q 311 229 304 289 q 319 184 313 210 q 331 140 325 158 q 342 122 338 122 q 369 133 346 122 q 401 149 392 143 q 460 219 438 174 q 508 339 482 264 q 515 353 513 350 q 525 357 517 356 q 576 346 553 364 q 585 331 585 339 q 582 294 586 322 q 575 257 578 271 q 567 216 574 240 q 550 169 560 192 q 532 132 540 146 q 470 69 510 99 q 397 32 431 39 q 293 35 350 22 q 56 207 125 72 q 23 324 26 264 q 39 467 19 385 q 154 708 75 618 q 311 804 224 786 q 381 808 339 810 q 450 799 422 806 q 604 693 568 767 z "},"d":{"ha":742,"x_min":22,"x_max":731,"o":"m 725 968 q 710 751 729 946 q 678 118 660 263 l 683 75 l 676 63 q 660 43 668 47 q 629 38 651 39 q 597 39 603 38 q 489 96 532 56 q 435 194 450 133 q 425 236 429 219 q 418 231 424 244 q 414 217 417 226 q 314 67 371 97 q 271 60 299 60 q 172 86 224 60 q 86 156 121 113 q 43 240 58 188 q 27 401 24 313 q 58 575 31 489 q 171 760 101 704 q 356 803 254 824 q 403 788 375 799 q 440 771 432 778 q 451 772 451 764 q 467 835 451 778 q 492 919 482 892 q 536 1017 513 985 q 656 1031 572 1065 q 725 968 718 1006 m 429 621 q 426 644 431 636 l 422 651 l 410 636 q 320 451 364 585 q 269 213 276 318 l 268 183 l 274 190 q 294 218 281 199 q 404 475 339 288 q 425 567 422 528 q 429 621 428 604 z "},"e":{"ha":660,"x_min":22,"x_max":642,"o":"m 315 272 l 313 261 q 311 208 311 251 q 326 115 311 150 l 332 103 l 344 106 q 417 131 376 111 q 528 231 471 158 q 549 251 542 249 q 597 250 565 261 q 628 222 628 238 q 611 183 628 215 q 583 135 594 150 q 517 72 564 106 q 433 26 469 38 q 367 17 410 18 q 301 21 325 17 q 143 88 214 38 q 32 249 64 143 q 24 328 24 275 q 44 476 24 403 q 115 647 69 565 q 211 771 161 728 q 382 835 283 835 q 508 801 449 835 q 632 610 642 731 q 558 415 624 514 q 445 303 511 346 q 331 269 379 261 l 315 272 m 374 489 q 351 430 363 463 q 335 375 340 397 q 332 353 329 353 q 365 383 335 353 q 469 556 436 453 q 484 615 478 579 q 488 654 490 650 q 475 645 486 656 q 451 619 464 635 q 431 593 438 604 q 374 489 399 547 z "},"f":{"ha":611,"x_min":18,"x_max":635,"o":"m 619 894 q 626 789 635 850 q 612 728 624 765 q 593 685 600 692 q 579 678 586 678 q 526 706 556 678 q 504 735 510 721 q 496 783 499 749 q 472 915 489 874 l 469 924 l 457 913 q 335 618 376 840 q 325 559 325 561 q 340 557 325 557 q 415 542 386 557 q 473 492 451 525 q 479 447 494 460 q 363 428 463 432 l 306 426 l 303 403 q 300 310 300 374 q 301 215 300 247 q 310 115 304 175 q 310 -12 319 25 q 293 -44 303 -37 q 243 -47 278 -56 q 167 -7 207 -37 q 124 37 139 14 q 93 108 110 60 q 75 201 83 139 q 61 390 63 308 l 58 451 l 44 468 q 19 515 19 496 q 25 529 19 525 q 44 535 31 533 l 58 536 l 60 551 q 67 625 61 567 q 151 1007 86 879 q 211 1088 174 1053 q 285 1132 249 1122 q 464 1088 367 1153 q 562 999 521 1050 q 619 894 603 949 z "},"g":{"ha":814,"x_min":17,"x_max":774,"o":"m 767 729 q 772 701 772 719 q 767 624 772 682 q 756 472 757 522 q 754 228 754 422 q 751 -17 753 33 q 742 -108 750 -67 q 661 -262 722 -204 q 594 -305 636 -286 q 508 -331 551 -324 q 429 -335 481 -335 q 344 -329 378 -335 q 233 -293 258 -317 q 228 -260 210 -271 q 254 -253 235 -254 q 288 -254 274 -251 q 331 -252 301 -258 q 369 -237 361 -246 q 436 -36 415 -196 q 446 65 440 -4 q 450 138 451 135 q 447 135 449 138 q 442 127 446 132 q 436 117 439 122 q 374 36 407 67 q 308 -3 340 6 q 225 -1 275 -11 q 156 24 189 6 q 98 69 124 43 q 57 129 72 96 q 28 331 18 211 q 147 688 46 533 q 289 811 211 783 q 348 818 308 818 q 413 810 388 818 q 540 731 493 783 l 557 714 l 565 725 q 586 749 576 740 q 606 763 596 758 q 633 771 617 767 q 710 763 668 776 q 767 729 751 750 m 486 517 l 501 594 l 496 603 q 481 642 490 611 q 468 675 471 671 q 458 675 465 679 q 423 642 449 669 q 383 593 397 614 q 276 279 300 467 q 273 183 271 236 q 283 99 275 131 l 286 88 l 299 96 q 328 124 311 106 q 364 168 346 142 q 434 303 410 233 q 486 517 458 374 z "},"h":{"ha":857,"x_min":36,"x_max":850,"o":"m 817 568 q 794 258 850 454 q 767 157 785 222 q 746 87 753 104 q 724 47 739 69 q 681 1 699 10 q 607 -4 651 -11 q 524 25 564 3 q 471 72 483 47 q 468 121 467 82 q 488 225 469 160 q 514 318 506 289 q 550 465 531 371 q 565 592 565 540 l 565 601 l 549 589 q 444 451 496 544 q 346 214 388 351 q 315 93 331 167 q 288 44 307 57 q 242 39 276 39 q 140 63 189 39 q 93 95 107 79 q 68 149 79 111 q 43 256 49 214 q 38 375 38 299 q 97 854 38 581 q 115 930 104 889 q 136 1007 125 971 q 158 1074 147 1043 q 176 1121 169 1104 q 299 1125 201 1172 q 347 1090 326 1113 q 373 1053 369 1068 q 371 982 376 1039 q 340 681 363 881 q 317 435 328 576 q 314 378 313 396 l 315 358 l 333 410 q 433 620 376 532 q 538 726 490 708 q 667 718 586 746 q 740 682 711 704 q 817 568 796 643 z "},"i":{"ha":357,"x_min":31,"x_max":364,"o":"m 363 997 q 356 949 364 965 q 331 914 349 933 q 303 889 314 894 q 244 882 278 875 q 179 908 200 892 q 165 928 168 917 q 157 944 161 939 q 131 1006 142 963 q 165 1090 117 1064 q 267 1103 207 1113 q 338 1074 314 1093 q 355 1047 350 1063 q 363 997 360 1031 m 163 735 q 247 715 206 735 q 306 667 289 694 l 314 650 l 314 583 q 308 457 314 517 q 304 189 296 303 q 301 47 313 69 q 238 24 292 24 q 199 24 204 22 q 128 46 147 38 q 89 74 101 60 q 69 117 76 89 q 57 157 64 136 q 38 290 43 197 q 38 451 32 382 q 83 676 50 589 q 112 725 97 714 q 163 735 126 736 z "},"j":{"ha":396,"x_min":-160,"x_max":389,"o":"m 204 874 q 108 967 142 893 q 92 1031 94 996 q 99 1086 89 1065 q 115 1111 103 1099 q 139 1129 128 1124 q 235 1126 174 1144 q 314 1076 296 1108 q 314 1021 326 1057 q 307 982 308 1001 q 292 893 307 940 q 276 872 286 878 q 244 867 267 867 q 204 874 222 868 m 365 33 q 389 -200 389 -144 q 380 -285 389 -253 q 349 -349 371 -317 q 251 -426 315 -394 q 64 -465 151 -476 q -39 -429 11 -458 q -112 -362 -89 -400 q -133 -208 -160 -289 q -67 -88 -110 -136 q 58 6 -25 -40 l 85 21 l 82 40 q 63 224 79 74 q 41 481 43 388 q 51 654 39 574 q 106 753 65 732 q 142 758 117 758 q 189 751 167 758 q 268 716 232 740 q 318 665 304 692 q 324 637 324 654 q 324 507 325 619 q 326 371 322 419 q 365 33 333 265 m 97 -197 q 97 -133 99 -172 q 92 -90 94 -93 q 61 -113 89 -87 q 21 -156 33 -139 q -15 -237 -4 -193 q -17 -311 -25 -281 q -3 -344 -12 -326 q 10 -361 6 -361 q 21 -356 11 -361 q 40 -340 28 -351 q 62 -316 51 -328 q 76 -297 72 -304 q 97 -197 94 -262 z "},"k":{"ha":744,"x_min":19,"x_max":735,"o":"m 649 143 q 696 125 693 143 q 667 94 697 108 q 596 82 636 82 q 396 238 474 82 q 392 246 394 242 q 388 253 390 250 q 385 259 386 257 q 382 263 383 261 q 381 264 381 264 q 358 194 379 261 q 329 96 338 128 q 315 44 318 53 q 303 31 311 35 q 297 27 300 29 q 290 24 293 25 q 283 21 286 22 q 222 17 261 11 q 135 51 171 25 q 117 77 126 58 q 103 99 108 96 q 74 174 90 110 q 47 328 58 239 q 58 818 21 532 q 94 1018 72 929 q 131 1124 111 1085 q 169 1157 144 1150 q 244 1151 200 1165 q 324 1110 289 1138 q 368 1054 360 1082 q 363 914 374 1032 q 349 783 353 818 q 338 671 346 744 q 319 493 328 583 q 319 481 318 481 q 335 518 321 482 q 369 600 349 556 q 557 772 454 772 q 644 749 599 772 q 711 696 690 726 q 727 608 735 658 q 685 510 719 557 q 604 429 660 476 q 513 364 549 382 q 492 350 492 353 q 533 266 492 335 q 607 161 574 197 l 624 143 l 649 143 m 449 439 q 481 463 450 439 q 556 538 531 503 q 593 633 593 590 l 592 650 l 569 625 q 493 522 531 585 q 474 488 485 508 q 455 453 463 468 q 449 439 447 439 z "},"l":{"ha":431,"x_min":28,"x_max":425,"o":"m 374 100 q 409 74 393 89 q 425 49 425 58 q 392 22 425 26 q 368 19 374 19 q 353 21 365 21 q 213 56 271 28 q 89 165 129 93 q 40 363 49 238 q 57 826 28 567 q 104 1106 81 1032 q 118 1142 113 1129 q 129 1160 124 1154 q 143 1169 135 1167 q 188 1172 161 1176 q 243 1154 214 1168 q 292 1122 272 1140 q 310 1104 304 1111 q 320 1083 315 1097 q 326 1051 325 1068 q 332 997 328 1033 q 335 664 342 871 q 329 399 331 560 q 329 219 326 265 q 344 136 332 172 l 353 110 l 374 100 z "},"m":{"ha":1353,"x_min":39,"x_max":1332,"o":"m 1290 492 q 1322 428 1313 463 q 1332 336 1331 393 q 1285 108 1332 265 q 1263 49 1271 60 q 1231 33 1256 39 q 1167 33 1200 26 q 1064 90 1097 47 q 1049 116 1051 106 q 1053 140 1047 126 q 1069 195 1060 157 q 1085 278 1078 233 q 1094 354 1093 322 q 1090 468 1100 414 l 1088 478 l 1075 469 q 985 389 1029 443 q 899 257 940 335 q 822 82 857 179 q 800 31 806 36 q 744 15 783 13 q 653 38 704 17 q 565 119 582 68 q 558 200 558 139 q 561 289 557 251 q 585 447 565 326 q 610 661 622 668 q 583 643 597 654 q 556 619 569 632 q 531 593 543 607 q 510 567 518 579 q 428 349 467 501 q 383 154 399 235 q 368 36 368 74 q 362 9 368 14 q 356 -9 356 4 q 349 -29 357 -22 q 331 -40 340 -36 q 260 -39 303 -47 q 178 -6 215 -29 q 101 82 129 24 q 78 132 88 113 q 40 403 40 204 q 74 788 40 663 q 97 825 82 814 q 144 836 113 836 q 222 821 183 835 q 288 783 260 807 q 326 733 317 760 q 337 674 335 710 q 338 517 339 639 l 336 364 l 349 425 q 385 567 368 517 q 490 742 421 674 q 532 778 514 764 q 568 799 550 792 q 608 811 586 807 q 739 782 664 819 q 885 557 869 717 q 887 493 888 533 q 883 438 886 453 q 886 436 882 431 l 897 451 q 993 550 947 524 q 1035 567 1007 558 q 1081 576 1063 575 q 1156 569 1115 579 q 1233 538 1197 558 q 1290 492 1269 517 z "},"n":{"ha":842,"x_min":29,"x_max":818,"o":"m 739 742 q 801 648 783 699 q 815 518 818 597 q 763 254 811 410 q 725 133 744 194 q 706 76 711 88 q 693 57 701 65 q 665 35 676 40 q 631 29 653 29 q 553 42 592 26 q 499 83 514 58 q 494 111 493 93 q 507 174 499 149 q 539 307 526 236 q 553 374 547 351 q 592 567 579 479 q 603 699 603 640 l 603 729 l 593 726 q 525 683 564 721 q 450 574 483 642 q 364 200 385 436 q 363 108 357 133 q 365 68 368 82 q 361 43 361 54 q 339 13 361 24 q 313 4 329 8 q 283 -1 297 0 q 257 0 268 -1 q 231 4 253 1 q 154 32 188 11 q 119 67 144 39 q 85 108 93 96 q 66 156 75 125 q 49 225 57 186 q 39 300 42 264 q 48 558 29 408 q 97 778 67 708 q 123 813 110 806 q 165 821 136 821 q 229 810 199 821 q 281 781 260 800 q 308 740 303 763 q 325 514 324 688 q 328 468 326 474 q 335 485 329 463 l 336 492 q 357 563 344 521 q 456 756 400 692 q 581 821 511 821 q 663 797 618 821 q 739 742 704 776 z "},"o":{"ha":622,"x_min":22,"x_max":594,"o":"m 588 588 q 594 497 593 560 q 589 397 594 433 q 558 254 574 301 q 500 146 535 182 q 388 76 450 92 q 335 74 371 74 q 278 76 299 74 q 193 103 232 85 q 49 233 92 144 q 28 288 32 267 q 24 356 24 308 q 32 449 24 411 q 106 653 58 572 q 163 728 129 692 q 224 779 196 764 q 265 789 242 789 q 386 781 338 789 q 468 750 425 775 q 542 689 511 725 q 569 642 556 672 q 588 588 583 613 m 463 361 q 485 445 481 415 q 490 531 490 475 q 482 625 490 594 q 467 668 474 656 q 449 690 460 678 q 424 710 438 701 q 403 721 411 718 q 397 722 397 722 q 396 717 396 721 q 385 686 397 713 q 296 428 318 563 q 286 294 282 346 q 317 194 292 236 l 324 182 l 340 189 q 374 210 357 197 q 463 361 428 251 z "},"p":{"ha":814,"x_min":38,"x_max":797,"o":"m 776 458 q 779 258 797 361 q 753 163 772 218 q 717 78 735 108 q 560 -3 669 -1 q 372 50 472 -3 l 336 69 l 335 56 q 331 -53 332 43 q 335 -197 329 -147 q 338 -253 342 -246 q 319 -277 335 -261 q 289 -296 304 -293 q 238 -297 265 -301 q 160 -268 197 -290 q 123 -241 147 -261 q 88 -208 99 -221 q 51 -94 60 -176 q 42 -1 44 -29 q 40 58 40 28 q 39 158 39 89 q 51 432 39 314 q 126 719 72 615 q 162 772 146 758 q 207 785 178 785 q 269 770 236 785 q 322 733 301 756 q 343 693 340 714 q 338 585 346 672 q 332 497 332 515 l 332 482 l 347 524 q 404 654 374 601 q 433 695 415 675 q 464 724 450 715 q 507 733 478 733 q 588 711 546 733 q 713 608 667 672 q 776 458 760 543 m 544 396 q 550 492 550 425 q 544 590 550 560 q 536 621 539 619 q 524 617 533 622 q 503 603 515 613 q 482 585 492 594 q 396 440 428 532 q 346 188 356 322 l 343 163 l 354 154 q 413 147 381 135 q 451 174 436 157 q 483 225 467 190 q 544 396 526 310 z "},"q":{"ha":811,"x_min":19,"x_max":774,"o":"m 746 785 q 769 748 764 767 q 772 671 774 729 q 763 503 772 597 q 742 247 753 424 q 739 31 739 189 q 746 -165 739 -126 q 749 -219 751 -201 q 735 -249 747 -236 q 686 -269 721 -262 q 615 -269 651 -275 q 544 -237 571 -264 q 511 -172 519 -212 q 497 -112 504 -142 q 481 -3 489 -71 q 474 108 474 64 l 474 126 l 457 100 q 400 39 433 64 q 336 11 367 14 q 235 23 292 6 q 129 74 178 40 q 89 111 111 88 q 33 222 46 157 q 32 396 21 288 q 114 669 50 542 q 212 796 154 751 q 332 840 269 840 q 422 823 372 840 q 514 779 472 806 l 535 764 l 546 786 q 593 832 565 825 q 634 834 607 836 q 678 825 661 832 q 746 785 722 808 m 493 599 l 497 625 l 489 635 q 478 646 482 646 q 469 638 476 646 q 451 621 461 631 q 436 603 442 611 q 349 411 382 532 q 326 190 317 290 q 335 140 331 140 q 363 171 338 140 q 465 361 425 244 q 477 406 475 389 q 486 522 479 422 q 493 599 489 572 z "},"r":{"ha":617,"x_min":32,"x_max":636,"o":"m 590 740 q 619 676 635 699 q 601 669 615 668 q 564 656 588 671 q 490 589 522 626 q 397 424 439 526 q 311 81 343 289 q 296 3 300 7 q 247 -3 285 -8 q 160 27 192 7 q 108 86 128 47 q 86 124 94 113 q 40 272 56 169 q 35 426 32 324 q 50 600 39 528 q 78 722 60 667 q 114 788 97 776 q 200 771 142 807 q 253 718 239 747 q 261 639 260 703 l 261 574 l 278 601 q 316 660 294 632 q 360 710 338 688 q 407 751 383 733 q 451 775 431 768 q 522 776 482 786 q 590 740 561 767 z "},"s":{"ha":556,"x_min":7,"x_max":533,"o":"m 417 508 q 410 528 411 519 q 410 578 410 536 q 407 633 410 633 q 389 616 404 633 q 365 586 374 599 q 318 461 318 513 q 326 413 318 429 q 379 342 335 397 q 500 110 499 194 q 464 35 500 67 q 401 -3 435 8 q 311 -15 368 -14 q 247 -14 261 -15 q 189 -8 235 -11 q 86 10 115 -6 q 33 52 57 24 q 8 100 8 81 q 20 119 8 114 q 75 131 32 124 q 160 146 111 135 q 219 161 210 157 q 252 200 244 174 q 246 257 260 226 q 181 351 235 286 q 115 442 135 408 q 81 517 94 475 q 68 631 60 579 q 117 738 76 682 q 265 828 178 824 q 454 764 363 833 q 486 743 482 743 q 507 726 490 743 q 528 695 525 708 q 529 644 532 682 q 522 587 526 618 q 513 530 517 556 q 503 485 508 504 q 496 464 499 467 q 482 462 493 461 q 461 468 471 463 q 417 508 432 483 z "},"t":{"ha":400,"x_min":-10,"x_max":500,"o":"m 499 893 q 492 867 499 874 q 460 856 483 856 q 363 864 438 856 q 335 599 358 792 q 301 306 308 390 q 300 189 294 222 q 303 151 303 172 q 305 124 303 142 q 309 90 307 106 q 313 75 311 75 q 385 0 372 33 q 376 -35 393 -22 q 314 -37 357 -49 q 256 -16 299 -35 q 197 13 213 3 q 51 193 86 79 q 35 342 26 272 q 40 425 38 368 q 106 907 50 599 q 104 907 104 907 q 29 918 40 915 q 11 926 18 921 q -4 963 0 939 q 0 992 -8 986 q 82 1004 13 1000 q 124 1004 96 1004 q 126 1015 126 1014 q 138 1057 129 1031 q 153 1106 146 1083 q 164 1132 160 1128 q 222 1142 179 1156 q 310 1086 265 1129 q 356 1021 344 1053 q 360 992 357 1015 q 454 981 444 985 q 486 949 474 974 q 499 893 499 925 z "},"u":{"ha":896,"x_min":28,"x_max":857,"o":"m 850 681 q 846 482 857 654 q 838 207 838 357 q 835 63 838 83 q 819 33 833 42 q 744 20 796 17 q 653 43 693 24 q 598 92 617 60 q 564 200 579 125 q 556 253 556 243 q 546 247 556 267 q 536 222 543 239 q 425 40 482 85 q 283 11 367 -7 q 128 92 190 31 q 29 365 29 190 q 43 510 29 435 q 87 670 58 593 q 140 772 115 747 q 194 790 160 790 q 258 777 225 790 q 311 742 290 764 q 335 699 332 721 q 332 582 338 676 q 318 239 314 288 q 339 106 326 149 l 344 88 l 358 96 q 401 140 378 110 q 449 213 425 171 q 490 300 472 254 q 529 403 503 331 q 553 471 549 456 q 560 518 557 486 q 588 682 571 631 q 610 729 599 715 q 646 751 622 743 q 728 753 685 760 q 807 726 771 747 q 850 681 843 706 z "},"v":{"ha":682,"x_min":14,"x_max":675,"o":"m 665 693 l 674 683 l 669 669 q 660 635 664 656 q 639 558 654 615 q 596 396 624 507 q 458 22 521 100 q 430 -2 444 4 q 383 -10 415 -8 q 331 -6 350 -10 q 174 74 236 15 q 83 249 114 132 q 38 511 54 365 q 36 744 15 714 q 94 772 51 768 q 189 758 136 775 q 308 644 290 725 q 342 435 317 606 q 365 293 357 335 q 399 171 388 189 q 413 185 401 165 q 441 237 425 204 q 469 301 457 269 q 532 536 503 386 q 562 665 551 631 q 586 710 572 700 q 626 713 599 718 q 665 693 653 707 z "},"w":{"ha":1086,"x_min":35,"x_max":1051,"o":"m 1035 636 q 1051 489 1051 588 q 1004 150 1051 282 q 957 58 985 92 q 892 10 929 24 q 807 1 856 -4 q 646 57 719 13 q 583 110 611 78 q 539 174 554 142 q 529 190 532 190 q 528 186 528 190 q 513 138 528 176 q 486 74 499 99 q 456 25 472 44 q 422 -5 440 6 q 379 -19 403 -15 q 311 -17 346 -24 q 226 8 264 -8 q 150 58 192 24 q 90 119 108 92 q 40 251 50 181 q 36 364 36 276 q 40 494 36 451 q 57 631 46 557 q 74 719 68 704 q 100 751 83 742 q 147 763 117 761 q 254 738 197 765 q 340 644 325 703 q 342 408 349 610 q 342 255 338 314 q 363 101 346 196 q 368 82 367 82 q 397 113 374 82 q 432 169 419 144 q 471 279 453 213 q 488 360 486 338 q 488 438 490 382 q 483 678 478 594 q 488 709 485 697 q 497 729 490 721 q 514 742 504 738 q 540 750 524 746 q 640 738 582 757 q 729 689 697 719 q 756 639 751 667 q 761 496 761 611 q 764 340 761 374 q 814 100 779 154 q 824 88 822 88 q 846 107 826 88 q 911 210 879 140 q 958 405 946 286 q 950 614 969 524 q 933 683 942 656 q 924 715 924 711 q 957 725 924 726 q 1003 706 989 722 q 1035 636 1018 689 z "},"x":{"ha":704,"x_min":14,"x_max":710,"o":"m 693 722 q 705 695 708 704 q 668 658 701 686 q 597 600 631 626 q 538 553 563 574 q 489 508 522 540 q 428 447 456 475 q 401 415 401 418 q 431 337 401 407 q 479 229 460 267 q 592 74 519 149 q 611 51 601 64 q 626 26 621 38 q 632 11 632 15 q 601 -21 632 -7 q 545 -30 583 -29 q 501 -29 507 -31 q 479 -25 497 -28 q 394 7 454 -19 q 306 68 354 25 q 225 158 258 111 q 210 179 211 178 q 122 64 206 182 q 90 26 101 36 q 68 17 79 17 q 22 33 40 17 q 15 53 14 40 q 133 254 21 93 l 157 288 l 144 317 q 61 579 101 419 q 49 655 50 626 q 57 694 49 683 q 167 732 82 732 q 271 711 229 732 q 303 683 293 700 q 335 604 314 667 q 357 543 356 546 q 382 564 360 539 q 572 722 454 643 q 632 754 621 754 q 663 744 644 754 q 693 722 681 735 z "},"y":{"ha":876,"x_min":32,"x_max":840,"o":"m 832 679 l 839 668 l 839 585 q 836 474 839 521 q 827 369 833 428 q 807 204 821 310 q 781 -22 792 81 q 758 -189 768 -137 q 725 -285 747 -240 q 685 -340 710 -314 q 626 -385 660 -365 q 553 -419 592 -406 q 381 -432 460 -450 q 263 -374 304 -415 q 221 -276 221 -333 q 258 -182 221 -228 q 357 -106 294 -136 q 410 -84 378 -96 q 449 -72 442 -72 q 460 -61 457 -72 q 468 -3 463 -50 q 475 67 475 63 q 450 47 475 71 q 354 -1 404 1 q 265 15 314 -3 q 99 114 156 56 q 58 169 74 140 q 37 231 40 206 q 33 342 33 257 q 40 489 33 438 q 94 721 60 656 q 139 761 113 754 q 200 753 163 767 q 272 714 238 740 q 322 661 307 688 q 338 497 349 611 q 329 165 317 275 q 335 111 333 129 q 338 96 336 96 q 360 108 339 96 q 392 133 378 119 q 426 181 406 147 q 535 432 500 292 q 578 567 556 511 q 599 629 586 586 q 624 700 618 696 q 637 701 626 701 q 653 699 647 701 q 668 703 660 696 q 710 715 682 713 q 765 714 739 718 q 803 699 783 710 q 832 679 824 689 m 444 -196 l 450 -169 l 435 -178 q 398 -208 421 -186 q 367 -246 375 -231 q 358 -287 358 -262 q 364 -324 358 -312 l 368 -336 l 381 -326 q 406 -300 393 -317 q 444 -196 431 -265 z "},"z":{"ha":672,"x_min":-14,"x_max":658,"o":"m 407 250 q 356 210 360 214 l 371 207 q 406 207 383 207 l 460 207 l 481 197 q 526 162 503 186 q 569 105 550 138 q 597 39 588 72 q 604 -124 619 -35 q 571 -228 594 -179 q 415 -379 522 -328 q 264 -419 340 -417 q 207 -418 231 -421 q 65 -366 124 -407 q -6 -271 6 -325 q 26 -174 -14 -226 q 90 -117 57 -133 q 175 -101 122 -101 q 288 -121 228 -101 l 318 -132 l 324 -125 q 390 -28 354 -86 q 428 38 407 -1 q 450 83 450 78 q 382 92 450 93 q 326 85 356 90 q 268 69 296 79 q 215 47 240 60 q 169 17 189 33 q 143 -1 150 1 q 122 -3 136 -4 q 72 15 99 -1 q 28 56 46 32 q 11 86 14 75 q 14 118 8 97 q 44 221 32 199 q 132 328 72 269 q 269 442 192 386 q 310 469 279 449 q 376 511 340 489 q 445 555 411 533 q 494 585 479 576 q 501 590 499 588 q 506 593 504 592 q 508 594 508 594 q 419 569 503 599 q 313 532 339 539 q 264 525 286 525 q 142 581 201 524 q 88 693 82 638 q 117 740 90 731 q 169 724 143 750 q 176 714 175 718 q 179 703 178 710 q 182 676 181 696 q 188 638 186 640 q 325 658 193 632 q 408 675 385 671 q 448 680 432 679 q 493 681 464 681 q 592 665 558 681 q 646 606 625 649 q 656 581 654 589 q 658 553 658 574 q 647 500 658 524 q 581 407 628 458 q 510 334 543 364 q 407 250 476 304 m 250 -206 q 269 -181 272 -183 q 225 -176 267 -178 q 159 -183 181 -175 q 114 -215 138 -190 q 79 -276 85 -246 l 78 -287 l 90 -287 q 125 -283 104 -287 q 250 -206 181 -271 z "},"|":{"ha":382,"x_min":43,"x_max":340,"o":"m 339 78 q 333 28 339 40 q 324 15 329 19 q 312 6 319 10 q 294 1 304 3 q 267 -1 283 -1 q 218 1 236 -1 q 121 50 153 17 q 100 86 108 63 q 89 142 94 106 q 85 196 83 179 q 76 342 86 225 q 74 394 72 390 q 69 465 75 399 q 46 919 43 749 q 53 1040 47 1013 q 76 1078 58 1068 q 108 1083 85 1083 q 150 1078 132 1083 q 227 1038 192 1065 q 272 986 263 1011 q 292 758 286 950 q 294 674 293 700 q 300 576 297 647 q 306 475 303 504 q 311 392 308 446 q 317 321 314 339 q 324 251 319 304 q 335 131 329 163 q 339 78 338 114 z "},"":{"ha":415,"x_min":0,"x_max":0,"o":""},"":{"ha":365,"x_min":44,"x_max":331,"o":"m 88 960 q 69 994 67 971 q 100 1026 74 1017 q 168 1028 126 1035 q 242 990 217 1019 q 247 935 268 960 q 186 913 229 913 q 103 944 124 913 q 88 960 97 954 m 314 657 q 314 393 331 589 q 232 -36 283 13 q 199 -46 222 -46 q 151 -32 176 -46 q 75 56 85 1 q 69 201 72 74 q 53 594 61 501 q 46 705 44 679 q 64 789 47 731 q 88 821 69 811 q 130 827 97 826 q 181 824 163 828 q 251 790 226 813 q 285 733 264 778 q 314 657 307 688 z "},"":{"ha":0,"x_min":0,"x_max":0,"o":""},"":{"ha":754,"x_min":19,"x_max":742,"o":"m 682 342 q 735 168 740 256 q 607 -31 725 28 q 461 -65 544 -61 q 378 -59 414 -68 q 288 -24 343 -50 q 131 92 200 19 q 26 288 39 186 q 42 404 19 340 q 157 607 71 490 q 249 765 222 696 q 289 822 265 810 q 333 819 304 831 q 393 779 363 807 q 460 658 440 735 q 459 581 467 631 q 433 489 451 532 q 396 415 417 450 q 317 294 375 381 q 250 153 257 208 q 252 134 247 139 q 281 122 257 129 q 492 122 404 83 q 585 204 558 153 q 603 329 615 261 q 576 385 597 358 q 563 399 568 396 q 542 404 558 401 q 507 422 519 410 q 494 439 494 433 q 504 449 493 444 q 565 446 532 461 q 628 401 593 432 q 682 342 663 371 m 328 963 q 318 979 328 968 q 307 1018 301 999 q 340 1050 314 1043 q 386 1049 358 1056 q 476 997 440 1036 q 499 929 510 961 q 458 897 490 901 q 385 910 426 892 q 368 919 376 914 q 353 930 360 924 q 340 942 346 936 q 331 953 335 947 q 328 963 328 958 z "},"":{"ha":803,"x_min":-3,"x_max":792,"o":"m 274 1192 q 267 1220 268 1204 q 272 1247 267 1236 q 318 1281 286 1278 q 381 1257 351 1283 q 399 1242 392 1249 q 413 1228 407 1236 q 418 1206 418 1221 q 406 1140 418 1161 q 356 1126 392 1115 q 308 1153 331 1135 q 274 1192 285 1171 m 494 1163 q 482 1178 488 1169 q 478 1200 476 1186 q 492 1265 479 1244 q 542 1278 507 1290 q 590 1251 568 1269 q 622 1210 613 1232 q 628 1181 628 1197 q 622 1154 628 1165 q 575 1122 607 1125 q 513 1147 542 1121 q 494 1163 503 1157 m 778 65 q 788 3 790 19 q 778 -17 785 -11 q 754 -26 771 -24 q 694 -25 726 -33 q 622 6 660 -17 q 553 68 576 32 q 490 340 506 139 l 489 365 l 442 367 q 329 365 407 368 q 250 360 251 363 q 229 308 247 358 q 140 75 176 160 q 81 4 111 8 q 36 18 54 1 q 29 38 28 26 q 40 69 32 49 q 64 142 49 90 q 100 263 79 194 q 128 358 131 357 q 88 357 126 361 q 38 360 50 353 q 0 390 10 371 q -3 401 -3 396 q 4 409 -3 406 q 22 416 11 413 q 53 424 33 419 q 97 433 75 428 q 139 443 124 440 l 156 447 l 176 514 q 260 769 232 694 q 322 894 289 844 q 399 976 358 951 q 476 999 429 997 q 561 983 522 1000 q 635 934 600 967 q 690 865 671 901 q 722 760 714 819 q 731 582 731 700 q 742 292 731 440 q 753 166 747 206 q 778 65 760 126 m 511 835 l 514 883 l 501 876 q 451 834 474 860 q 406 769 428 808 q 363 675 385 731 q 334 600 351 649 q 302 513 317 551 q 288 472 288 474 q 299 471 288 468 q 351 475 310 472 q 439 481 393 478 l 485 482 l 488 531 q 493 621 489 579 q 511 835 510 776 z "},"":{"ha":682,"x_min":29,"x_max":651,"o":"m 167 1192 q 160 1220 161 1204 q 165 1247 160 1236 q 211 1281 179 1278 q 274 1257 244 1283 q 292 1242 285 1249 q 306 1228 300 1236 q 311 1206 311 1221 q 299 1140 311 1161 q 249 1126 285 1115 q 215 1142 232 1132 q 186 1165 199 1151 q 167 1192 174 1178 m 388 1163 q 375 1178 381 1169 q 371 1200 369 1186 q 385 1265 372 1244 q 435 1278 400 1290 q 483 1251 461 1269 q 515 1210 506 1232 q 521 1181 521 1197 q 515 1154 521 1165 q 468 1122 500 1125 q 406 1147 435 1121 q 388 1163 396 1157 m 643 760 q 650 679 650 725 q 637 489 650 607 q 606 296 624 371 q 557 121 582 186 q 524 56 542 82 q 483 15 506 31 q 431 -8 460 -1 q 383 -15 414 -12 q 340 -17 353 -18 q 222 18 260 -4 q 172 62 208 25 q 119 119 135 99 q 47 290 72 182 q 36 342 39 321 q 32 390 33 364 q 31 464 31 415 q 40 618 31 556 q 74 756 49 681 q 188 960 118 894 q 368 1031 263 1031 q 476 1007 419 1031 q 569 944 532 983 q 628 831 613 904 q 643 760 635 797 m 554 492 q 568 672 568 589 q 561 763 568 739 q 554 796 554 786 q 551 816 554 803 q 544 842 549 829 q 535 866 540 854 q 525 885 529 878 q 518 890 521 892 q 496 873 508 883 q 471 850 483 863 q 447 823 458 838 q 426 796 435 808 q 375 694 400 757 q 346 597 350 632 q 340 557 344 583 q 343 224 311 368 q 363 158 349 201 q 381 106 376 115 q 384 102 382 103 q 390 103 386 101 q 397 110 393 106 q 410 121 401 114 q 499 268 461 171 q 554 492 538 365 z "},"":{"ha":883,"x_min":29,"x_max":835,"o":"m 261 1192 q 255 1220 256 1204 q 260 1247 254 1236 q 306 1281 274 1278 q 368 1257 339 1283 q 387 1242 379 1249 q 400 1228 394 1236 q 406 1206 406 1221 q 393 1140 404 1161 q 343 1126 379 1115 q 294 1153 317 1135 q 261 1192 271 1171 m 482 1163 q 469 1178 475 1169 q 464 1200 464 1186 q 479 1265 467 1244 q 529 1278 494 1290 q 578 1251 556 1269 q 610 1210 600 1232 q 615 1181 615 1197 q 610 1154 615 1165 q 563 1122 594 1125 q 500 1147 529 1121 q 482 1163 490 1157 m 832 403 q 831 124 824 231 q 832 40 835 54 q 808 11 829 25 q 718 -8 772 -14 q 604 36 649 -3 q 576 67 583 54 q 565 103 569 79 q 553 206 554 158 q 551 231 553 232 q 536 199 549 229 q 463 72 504 121 q 376 8 421 22 q 285 2 336 -4 q 185 32 233 8 q 81 146 118 64 q 35 424 31 250 q 49 608 38 500 q 68 751 60 715 q 81 804 72 768 q 121 949 97 890 q 158 1001 136 989 q 218 1004 179 1014 q 317 953 275 990 q 356 888 349 924 q 356 743 363 851 q 351 628 353 686 q 347 517 350 567 q 344 326 344 467 q 349 151 343 185 q 356 113 354 117 q 367 119 357 110 q 390 144 376 128 q 415 179 403 161 q 564 538 490 292 q 582 626 576 579 q 619 868 600 790 q 667 968 640 954 q 735 968 688 978 q 799 942 783 958 q 810 913 804 935 q 832 717 822 851 q 835 570 835 676 q 832 403 835 464 z "},"":{"ha":597,"x_min":44,"x_max":578,"o":"m 568 161 q 569 92 576 124 q 507 -4 556 38 q 451 -34 481 -26 q 368 -31 421 -42 q 210 54 269 -7 q 154 150 154 111 q 176 174 154 174 q 228 150 199 174 q 256 141 243 139 q 294 165 268 143 q 324 199 307 174 q 349 240 342 224 q 353 285 353 253 q 349 326 353 317 q 297 375 339 342 q 192 535 210 444 q 192 629 181 588 q 242 731 204 679 q 326 858 333 853 q 302 856 325 861 q 271 847 279 851 q 168 685 206 817 q 136 447 143 599 q 132 215 132 379 q 136 11 132 50 q 133 -37 139 -28 q 107 -35 128 -46 q 79 -3 86 -24 q 60 108 69 25 q 48 368 51 174 q 50 629 44 563 q 108 882 64 790 q 247 1001 156 978 q 369 986 306 1017 q 457 924 415 964 q 553 776 526 857 q 563 713 563 749 q 554 657 563 678 q 411 449 515 556 q 390 427 399 436 q 382 418 382 418 q 461 346 404 404 q 568 161 549 256 z "},"":{"ha":628,"x_min":31,"x_max":624,"o":"m 153 986 q 146 1015 147 999 q 151 1042 144 1031 q 197 1075 165 1072 q 260 1051 231 1078 q 278 1036 271 1042 q 292 1022 286 1031 q 297 1000 297 1014 q 285 935 296 956 q 235 921 269 910 q 185 947 208 928 q 153 986 163 965 m 392 942 q 373 958 381 951 q 360 972 365 964 q 356 994 356 981 q 371 1060 358 1039 q 421 1072 385 1085 q 469 1044 446 1064 q 500 1004 492 1025 q 506 976 506 992 q 500 949 507 960 q 454 917 486 919 q 392 942 421 915 m 601 63 q 615 32 624 46 q 567 15 606 14 q 492 33 529 15 q 427 78 463 47 q 381 132 392 110 l 372 150 l 364 129 q 293 22 332 46 q 252 15 281 15 q 204 18 224 14 q 103 72 146 31 q 47 176 64 110 q 34 240 36 215 q 32 325 32 265 q 40 451 32 401 q 176 782 78 686 q 235 824 207 813 q 301 833 263 836 q 485 747 404 829 q 543 590 542 688 q 538 550 543 558 q 524 543 532 542 q 517 544 519 543 q 515 544 515 544 q 521 529 515 544 q 533 414 528 508 q 558 171 543 256 q 566 137 560 158 q 578 97 572 115 q 586 75 583 79 q 601 63 590 71 m 463 581 l 469 578 l 463 603 q 436 663 454 629 q 413 696 418 696 q 396 683 410 696 q 308 543 349 643 q 253 335 267 443 q 250 156 242 247 q 254 136 251 135 q 275 179 257 139 q 339 336 307 249 q 364 433 356 381 q 403 571 383 554 q 414 576 406 574 q 431 581 422 579 q 446 583 440 583 q 463 581 456 583 z "},"":{"ha":622,"x_min":22,"x_max":594,"o":"m 135 986 q 128 1015 129 999 q 133 1042 128 1031 q 179 1075 147 1072 q 243 1051 213 1078 q 260 1036 253 1042 q 274 1022 268 1031 q 279 1000 281 1014 q 267 935 279 956 q 218 921 253 910 q 169 947 192 928 q 135 986 146 965 m 374 942 q 356 958 364 951 q 343 972 349 964 q 339 994 338 981 q 353 1060 340 1039 q 403 1072 368 1085 q 428 1060 415 1068 q 451 1044 440 1053 q 470 1026 463 1036 q 483 1004 478 1015 q 489 976 489 992 q 483 949 489 960 q 436 917 468 919 q 374 942 403 915 m 588 588 q 594 497 593 560 q 589 397 594 433 q 558 254 574 301 q 500 146 535 182 q 388 76 450 92 q 335 74 371 74 q 278 76 299 74 q 193 103 232 85 q 49 233 92 144 q 28 288 32 267 q 24 356 24 308 q 32 449 24 411 q 106 653 58 572 q 163 728 129 692 q 224 779 196 764 q 265 789 242 789 q 386 781 338 789 q 468 750 425 775 q 542 689 511 725 q 569 642 556 672 q 588 588 583 613 m 463 361 q 485 445 481 415 q 490 531 490 475 q 482 625 490 594 q 467 668 474 656 q 437 701 457 683 q 403 721 417 718 q 397 722 397 722 q 396 717 396 721 q 385 686 397 713 q 296 428 318 563 q 286 294 282 346 q 317 194 292 236 l 324 182 l 340 189 q 374 210 357 197 q 463 361 428 251 z "},"":{"ha":896,"x_min":28,"x_max":857,"o":"m 268 986 q 261 1015 263 999 q 267 1042 260 1031 q 313 1075 281 1072 q 375 1051 346 1078 q 394 1036 386 1042 q 407 1022 401 1031 q 413 1000 413 1014 q 400 935 411 956 q 350 921 385 910 q 301 947 324 928 q 268 986 278 965 m 507 942 q 488 958 496 951 q 476 972 481 964 q 471 994 471 981 q 486 1060 474 1039 q 536 1072 500 1085 q 561 1060 549 1068 q 584 1044 574 1053 q 603 1026 594 1036 q 615 1004 611 1015 q 622 976 621 992 q 615 949 622 960 q 569 917 600 919 q 507 942 535 915 m 850 681 q 846 482 857 654 q 838 207 838 357 q 835 63 838 83 q 819 33 833 42 q 744 20 796 17 q 653 43 693 24 q 613 72 628 54 q 586 119 597 89 q 564 200 575 149 q 556 253 556 243 q 546 247 556 267 q 536 222 543 239 q 425 40 482 85 q 283 11 367 -7 q 128 92 190 31 q 29 365 29 190 q 43 510 29 435 q 87 670 58 593 q 140 772 115 747 q 194 790 160 790 q 258 777 225 790 q 311 742 290 764 q 335 699 332 721 q 332 582 338 676 q 318 239 314 288 q 339 106 326 149 l 344 88 l 358 96 q 401 140 378 110 q 449 213 425 171 q 490 300 472 254 q 529 403 503 331 q 553 471 549 456 q 560 518 557 486 q 588 682 571 631 q 602 717 594 704 q 620 738 610 731 q 646 751 631 746 q 771 744 701 768 q 850 681 840 719 z "},"":{"ha":301,"x_min":10,"x_max":282,"o":"m 278 792 q 261 739 282 765 q 178 714 229 697 q 147 721 160 719 q 90 753 126 724 q 42 807 54 783 q 26 921 10 871 q 72 1011 43 971 q 95 1043 81 1025 q 123 1075 110 1061 q 143 1093 136 1089 q 178 1097 158 1104 q 199 1085 186 1094 q 215 1071 213 1076 q 232 1058 218 1065 q 257 1029 257 1044 q 243 995 257 1018 q 211 953 229 972 q 178 908 189 926 l 167 890 l 174 888 q 247 844 219 869 q 278 792 275 819 z "},"":{"ha":288,"x_min":17,"x_max":289,"o":"m 256 38 q 271 -75 288 -25 q 226 -167 254 -125 q 189 -215 213 -187 q 156 -249 165 -242 q 121 -253 140 -260 q 99 -240 113 -249 q 83 -226 86 -232 q 67 -212 79 -221 q 42 -183 42 -200 q 56 -151 42 -174 q 86 -107 69 -128 q 121 -64 110 -82 l 132 -44 l 125 -43 q 51 1 79 -25 q 19 53 24 26 q 38 106 17 79 q 121 132 68 149 q 151 124 139 125 q 207 92 171 122 q 256 38 243 63 z "},"":{"ha":597,"x_min":10,"x_max":578,"o":"m 174 888 q 247 844 219 869 q 278 792 275 819 q 261 739 282 765 q 178 714 229 697 q 147 721 160 719 q 90 753 126 724 q 42 807 54 783 q 26 921 10 871 q 72 1011 43 971 q 95 1043 81 1025 q 123 1075 110 1061 q 143 1093 136 1089 q 178 1097 158 1104 q 199 1085 186 1094 q 215 1071 213 1076 q 232 1058 218 1065 q 257 1029 257 1044 q 251 1009 257 1022 q 234 981 244 996 q 211 953 224 965 q 178 908 189 926 l 167 890 l 174 888 m 574 792 q 557 739 576 765 q 472 714 525 697 q 443 721 456 719 q 386 753 422 724 q 338 807 350 783 q 322 921 306 871 q 368 1011 339 971 q 391 1043 376 1025 q 419 1075 406 1061 q 438 1093 432 1089 q 472 1097 454 1104 q 494 1085 482 1094 q 511 1071 507 1076 q 528 1058 514 1065 q 551 1029 551 1044 q 538 995 551 1018 q 507 953 525 972 q 474 908 485 926 l 463 890 l 469 888 q 543 844 515 869 q 574 792 571 819 z "},"":{"ha":571,"x_min":-4,"x_max":564,"o":"m 531 1003 q 546 890 563 940 q 501 799 529 840 q 464 751 488 778 q 431 717 440 724 q 396 713 414 706 q 374 724 386 715 q 358 739 361 733 q 340 753 354 744 q 317 782 317 765 q 330 815 317 792 q 361 857 343 838 q 396 901 385 883 l 406 919 l 400 922 q 326 965 353 940 q 294 1018 299 990 q 311 1071 292 1044 q 396 1097 343 1114 q 426 1089 414 1090 q 482 1056 446 1086 q 531 1003 518 1026 m 131 1089 q 165 1073 143 1088 q 208 1038 188 1058 q 235 1003 228 1018 q 250 890 267 940 q 206 799 233 840 q 168 751 192 778 q 135 717 144 724 q 100 713 119 706 q 78 724 92 715 q 63 739 65 733 q 46 753 58 744 q 21 782 21 765 q 35 815 21 792 q 65 857 49 838 q 100 901 89 883 l 111 919 l 104 922 q 31 965 58 940 q -1 1018 3 990 q 17 1071 -4 1044 q 100 1097 47 1114 q 131 1089 118 1090 z "}}}
